<mxfile host="Electron" modified="2025-03-19T12:34:08.570Z" agent="Mozilla/5.0 (Windows NT 10.0; Win64; x64) AppleWebKit/537.36 (KHTML, like Gecko) draw.io/24.1.0 Chrome/120.0.6099.109 Electron/28.1.0 Safari/537.36" etag="BABpCfE5frvjXgwumNH0" version="24.1.0" type="device">
  <diagram name="Страница — 1" id="YjZkR3EvZkaTiZIXW0vw">
    <mxGraphModel dx="446" dy="73" grid="1" gridSize="10" guides="1" tooltips="1" connect="1" arrows="1" fold="1" page="1" pageScale="1" pageWidth="1654" pageHeight="1169" math="0" shadow="0">
      <root>
        <mxCell id="0" />
        <mxCell id="1" parent="0" />
        <mxCell id="GmjQoCojNCX24J4jFpLi-1" value="&lt;font style=&quot;direction: ltr ; letter-spacing: 0px ; line-height: 120% ; opacity: 1 ; font-size: 25px ; font-family: &amp;#34;gost type b&amp;#34;&quot;&gt;&lt;span style=&quot;font-family: monospace ; font-size: 0px&quot;&gt;%3CmxGraphModel%3E%3Croot%3E%3CmxCell%20id%3D%220%22%2F%3E%3CmxCell%20id%3D%221%22%20parent%3D%220%22%2F%3E%3CmxCell%20id%3D%222%22%20value%3D%22%D0%93%D0%A3%D0%98%D0%A0.502528.017%D0%944%22%20style%3D%22text%3Bhtml%3D1%3BstrokeColor%3Dnone%3BfillColor%3Dnone%3Balign%3Dcenter%3BverticalAlign%3Dmiddle%3BwhiteSpace%3Dwrap%3Brounded%3D0%3BfontFamily%3DVerdana%3BfontStyle%3D2%3BfontSize%3D20%3Brotation%3D-180%3B%22%20vertex%3D%221%22%20parent%3D%221%22%3E%3CmxGeometry%20x%3D%221176%22%20y%3D%22836%22%20width%3D%22346%22%20height%3D%2220%22%20as%3D%22geometry%22%2F%3E%3C%2FmxCell%3E%3C%2Froot%3E%3C%2FmxGraphModel%3E&lt;/span&gt;&lt;i&gt;&lt;br&gt;&lt;/i&gt;&lt;/font&gt;" style="verticalAlign=middle;align=center;vsdxID=54;rotation=180;fillColor=#FFFFFF;gradientColor=none;shape=stencil(nZBLDoAgDERP0z3SIyjew0SURgSD+Lu9kMZoXLhwN9O+tukAlrNpJg1SzDH4QW/URgNYgZTkjA4UkwJUgGXng+6DX1zLfmoymdXo17xh5zmRJ6Q42BWCfc2oJfdAr+Yv+AP9Cb7OJ3H/2JG1HNGz/84klThPVCc=);strokeColor=#000000;strokeWidth=3;spacingTop=-2;spacingBottom=-2;spacingLeft=-2;spacingRight=-2;labelBackgroundColor=none;rounded=0;html=1;whiteSpace=wrap;" vertex="1" parent="1">
          <mxGeometry x="1720.0012998160637" y="1178" width="280.7866339668915" height="56.76692373607541" as="geometry" />
        </mxCell>
        <mxCell id="GmjQoCojNCX24J4jFpLi-2" style="vsdxID=415;edgeStyle=none;startArrow=none;endArrow=none;startSize=5;endSize=5;strokeWidth=3;strokeColor=#000000;spacingTop=0;spacingBottom=0;spacingLeft=0;spacingRight=0;verticalAlign=middle;html=1;labelBackgroundColor=#ffffff;rounded=0;" edge="1" parent="1">
          <mxGeometry relative="1" as="geometry">
            <Array as="points" />
            <mxPoint x="3272" y="1180" as="sourcePoint" />
            <mxPoint x="3272" y="2314" as="targetPoint" />
          </mxGeometry>
        </mxCell>
        <mxCell id="GmjQoCojNCX24J4jFpLi-3" vertex="1" parent="1">
          <mxGeometry x="2172.047823421214" y="2234.236503856041" as="geometry" />
        </mxCell>
        <mxCell id="GmjQoCojNCX24J4jFpLi-4" style="vsdxID=1;edgeStyle=none;startArrow=none;endArrow=none;startSize=5;endSize=5;strokeWidth=3;strokeColor=#000000;spacingTop=0;spacingBottom=0;spacingLeft=0;spacingRight=0;verticalAlign=middle;html=1;labelBackgroundColor=#ffffff;rounded=0;" edge="1" parent="1">
          <mxGeometry relative="1" as="geometry">
            <Array as="points" />
            <mxPoint x="1719" y="1181" as="sourcePoint" />
            <mxPoint x="1719" y="2314" as="targetPoint" />
          </mxGeometry>
        </mxCell>
        <mxCell id="GmjQoCojNCX24J4jFpLi-5" style="vsdxID=1;edgeStyle=none;startArrow=none;endArrow=none;startSize=5;endSize=5;strokeWidth=3;strokeColor=#000000;spacingTop=0;spacingBottom=0;spacingLeft=0;spacingRight=0;verticalAlign=middle;html=1;labelBackgroundColor=#ffffff;rounded=0;" edge="1" parent="1">
          <mxGeometry relative="1" as="geometry">
            <Array as="points" />
            <mxPoint x="1719" y="1181" as="sourcePoint" />
            <mxPoint x="1719" y="2314" as="targetPoint" />
          </mxGeometry>
        </mxCell>
        <mxCell id="GmjQoCojNCX24J4jFpLi-6" style="vsdxID=1;edgeStyle=none;startArrow=none;endArrow=none;startSize=5;endSize=5;strokeWidth=3;strokeColor=#000000;spacingTop=0;spacingBottom=0;spacingLeft=0;spacingRight=0;verticalAlign=middle;html=1;labelBackgroundColor=#ffffff;rounded=0;" edge="1" parent="1">
          <mxGeometry relative="1" as="geometry">
            <Array as="points" />
            <mxPoint x="1719" y="1178" as="sourcePoint" />
            <mxPoint x="1719" y="2314" as="targetPoint" />
          </mxGeometry>
        </mxCell>
        <mxCell id="GmjQoCojNCX24J4jFpLi-7" style="vsdxID=55;fillColor=none;gradientColor=none;shape=stencil(nZBJDoAgDEVP0z3SIzjcw0SURgSDON1eSBcOCxPd/d++tukHzCddjwqkmIJ3vVqpCRqwACnJauUpRAVYAuat86rzbrYN+7FOZFKDW9KGjecyIdKMFPvdVwwbsi/wC/oT/HT+AUdxftmSMRzStf9MJZY4USwP);strokeColor=#000000;strokeWidth=3;labelBackgroundColor=#ffffff;rounded=0;html=1;whiteSpace=wrap;" vertex="1" parent="1">
          <mxGeometry x="2532" y="2091" width="740" height="223" as="geometry" />
        </mxCell>
        <mxCell id="GmjQoCojNCX24J4jFpLi-8" style="vsdxID=327;edgeStyle=none;startArrow=none;endArrow=none;startSize=5;endSize=5;strokeWidth=2;strokeColor=#000000;spacingTop=0;spacingBottom=0;spacingLeft=0;spacingRight=0;verticalAlign=middle;html=1;labelBackgroundColor=#ffffff;rounded=0;" edge="1" parent="1">
          <mxGeometry relative="1" as="geometry">
            <mxPoint as="offset" />
            <Array as="points" />
            <mxPoint x="2982.2459151193634" y="2078" as="sourcePoint" />
            <mxPoint x="2982.2459151193634" y="2078" as="targetPoint" />
          </mxGeometry>
        </mxCell>
        <mxCell id="GmjQoCojNCX24J4jFpLi-9" vertex="1" parent="1">
          <mxGeometry x="2982.2459151193634" y="2078" as="geometry" />
        </mxCell>
        <mxCell id="GmjQoCojNCX24J4jFpLi-10" value="Изм." style="text;html=1;strokeColor=none;fillColor=none;align=center;verticalAlign=middle;whiteSpace=wrap;rounded=0;fontFamily=Verdana;fontStyle=2" vertex="1" parent="1">
          <mxGeometry x="2528" y="2172" width="40" height="20" as="geometry" />
        </mxCell>
        <mxCell id="GmjQoCojNCX24J4jFpLi-11" value="Лист" style="text;html=1;strokeColor=none;fillColor=none;align=center;verticalAlign=middle;whiteSpace=wrap;rounded=0;fontFamily=Verdana;fontStyle=2" vertex="1" parent="1">
          <mxGeometry x="2560" y="2172" width="40" height="20" as="geometry" />
        </mxCell>
        <mxCell id="GmjQoCojNCX24J4jFpLi-12" value="№ докум." style="text;html=1;strokeColor=none;fillColor=none;align=center;verticalAlign=middle;whiteSpace=wrap;rounded=0;fontFamily=Verdana;fontStyle=2" vertex="1" parent="1">
          <mxGeometry x="2600" y="2172" width="71" height="20" as="geometry" />
        </mxCell>
        <mxCell id="GmjQoCojNCX24J4jFpLi-13" style="vsdxID=327;edgeStyle=none;startArrow=none;endArrow=none;startSize=5;endSize=5;strokeWidth=2;strokeColor=#000000;spacingTop=0;spacingBottom=0;spacingLeft=0;spacingRight=0;verticalAlign=middle;html=1;labelBackgroundColor=#ffffff;rounded=0;" edge="1" parent="1">
          <mxGeometry relative="1" as="geometry">
            <mxPoint as="offset" />
            <Array as="points" />
            <mxPoint x="2982.2459151193634" y="2079" as="sourcePoint" />
            <mxPoint x="2982.2459151193634" y="2079" as="targetPoint" />
          </mxGeometry>
        </mxCell>
        <mxCell id="GmjQoCojNCX24J4jFpLi-14" vertex="1" parent="1">
          <mxGeometry x="2982.2459151193634" y="2079" as="geometry" />
        </mxCell>
        <mxCell id="GmjQoCojNCX24J4jFpLi-15" value="Утв." style="text;html=1;strokeColor=none;fillColor=none;align=center;verticalAlign=middle;whiteSpace=wrap;rounded=0;fontStyle=2;fontFamily=Verdana;" vertex="1" parent="1">
          <mxGeometry x="2532" y="2280" width="40" height="48" as="geometry" />
        </mxCell>
        <mxCell id="GmjQoCojNCX24J4jFpLi-16" value="Н.контр." style="text;html=1;strokeColor=none;fillColor=none;align=center;verticalAlign=middle;whiteSpace=wrap;rounded=0;fontFamily=Verdana;fontStyle=2" vertex="1" parent="1">
          <mxGeometry x="2544" y="2276" width="40" height="20" as="geometry" />
        </mxCell>
        <mxCell id="GmjQoCojNCX24J4jFpLi-17" value="Пров." style="text;html=1;strokeColor=none;fillColor=none;align=center;verticalAlign=middle;whiteSpace=wrap;rounded=0;fontFamily=Verdana;fontStyle=2" vertex="1" parent="1">
          <mxGeometry x="2532" y="2212" width="40" height="20" as="geometry" />
        </mxCell>
        <mxCell id="GmjQoCojNCX24J4jFpLi-18" value="Разраб." style="text;html=1;strokeColor=none;fillColor=none;align=center;verticalAlign=middle;whiteSpace=wrap;rounded=0;fontFamily=Verdana;fontStyle=2" vertex="1" parent="1">
          <mxGeometry x="2538" y="2191" width="40" height="20" as="geometry" />
        </mxCell>
        <mxCell id="GmjQoCojNCX24J4jFpLi-19" value="Т.контр." style="text;html=1;strokeColor=none;fillColor=none;align=center;verticalAlign=middle;whiteSpace=wrap;rounded=0;fontFamily=Verdana;fontStyle=2" vertex="1" parent="1">
          <mxGeometry x="2540" y="2232" width="40" height="20" as="geometry" />
        </mxCell>
        <mxCell id="GmjQoCojNCX24J4jFpLi-20" value="Подп." style="text;html=1;strokeColor=none;fillColor=none;align=center;verticalAlign=middle;whiteSpace=wrap;rounded=0;fontFamily=Verdana;fontStyle=2" vertex="1" parent="1">
          <mxGeometry x="2700" y="2172" width="40" height="20" as="geometry" />
        </mxCell>
        <mxCell id="GmjQoCojNCX24J4jFpLi-21" value="Дата" style="text;html=1;strokeColor=none;fillColor=none;align=center;verticalAlign=middle;whiteSpace=wrap;rounded=0;fontFamily=Verdana;fontStyle=2" vertex="1" parent="1">
          <mxGeometry x="2752" y="2172" width="40" height="20" as="geometry" />
        </mxCell>
        <mxCell id="GmjQoCojNCX24J4jFpLi-22" value="Лист." style="text;html=1;strokeColor=none;fillColor=none;align=center;verticalAlign=middle;whiteSpace=wrap;rounded=0;fontFamily=Verdana;fontStyle=2" vertex="1" parent="1">
          <mxGeometry x="3084" y="2152" width="40" height="20" as="geometry" />
        </mxCell>
        <mxCell id="GmjQoCojNCX24J4jFpLi-23" value="Масса" style="text;html=1;strokeColor=none;fillColor=none;align=center;verticalAlign=middle;whiteSpace=wrap;rounded=0;fontFamily=Verdana;fontStyle=2" vertex="1" parent="1">
          <mxGeometry x="3148" y="2152" width="40" height="20" as="geometry" />
        </mxCell>
        <mxCell id="GmjQoCojNCX24J4jFpLi-24" value="Масшт" style="text;html=1;strokeColor=none;fillColor=none;align=center;verticalAlign=middle;whiteSpace=wrap;rounded=0;fontFamily=Verdana;fontStyle=2" vertex="1" parent="1">
          <mxGeometry x="3216" y="2152" width="40" height="20" as="geometry" />
        </mxCell>
        <mxCell id="GmjQoCojNCX24J4jFpLi-25" value="" style="group" vertex="1" connectable="0" parent="1">
          <mxGeometry x="1757" y="1259" width="1478.11" height="1004" as="geometry" />
        </mxCell>
        <mxCell id="GmjQoCojNCX24J4jFpLi-26" style="vsdxID=136;fillColor=#FFFFFF;gradientColor=none;shape=stencil(UzV2Ls5ILEhVNTIoLinKz04tz0wpyVA1dlE1MsrMy0gtyiwBslSNXVWNndPyi1LTi/JL81Ig/IJEkEoQKze/DGRCBUSfoYEBSI+RQSUq3w2iOCczD49iPErJVIhmPZCBcDjEz8hy6J4ECkECyNgVAA==);strokeWidth=3;points=[];labelBackgroundColor=#ffffff;rounded=0;html=1;whiteSpace=wrap;" vertex="1" parent="GmjQoCojNCX24J4jFpLi-25">
          <mxGeometry x="27.8888679245283" width="111.5554716981132" height="18.59259259259259" as="geometry" />
        </mxCell>
        <mxCell id="GmjQoCojNCX24J4jFpLi-27" style="vsdxID=137;fillColor=#FFFFFF;gradientColor=none;shape=stencil(UzV2Ls5ILEhVNTIoLinKz04tz0wpyVA1dlE1MsrMy0gtyiwBslSNXVWNndPyi1LTi/JL81Ig/IJEkEoQKze/DGRCBUSfoYEBSI+RQSUq3w2iOCczD49iPErJVIhmPZCBcDjEz8hy6J4ECkECyNgVAA==);strokeWidth=3;points=[];labelBackgroundColor=#ffffff;rounded=0;html=1;whiteSpace=wrap;" vertex="1" parent="GmjQoCojNCX24J4jFpLi-25">
          <mxGeometry x="139.4443396226415" width="111.5554716981132" height="18.59259259259259" as="geometry" />
        </mxCell>
        <mxCell id="GmjQoCojNCX24J4jFpLi-28" style="vsdxID=138;fillColor=#FFFFFF;gradientColor=none;shape=stencil(UzV2Ls5ILEhVNTIoLinKz04tz0wpyVA1dlE1MsrMy0gtyiwBslSNXVWNndPyi1LTi/JL81Ig/IJEkEoQKze/DGRCBUSfoYEBSI+RQSUq3w2iOCczD49iPErJVIhmPZCBcDjEz8hy6J4ECkECyNgVAA==);strokeWidth=3;points=[];labelBackgroundColor=#ffffff;rounded=0;html=1;whiteSpace=wrap;" vertex="1" parent="GmjQoCojNCX24J4jFpLi-25">
          <mxGeometry x="250.9998113207547" width="111.5554716981132" height="18.59259259259259" as="geometry" />
        </mxCell>
        <mxCell id="GmjQoCojNCX24J4jFpLi-29" style="vsdxID=139;fillColor=#FFFFFF;gradientColor=none;shape=stencil(UzV2Ls5ILEhVNTIoLinKz04tz0wpyVA1dlE1MsrMy0gtyiwBslSNXVWNndPyi1LTi/JL81Ig/IJEkEoQKze/DGRCBUSfoYEBSI+RQSUq3w2iOCczD49iPErJVIhmPZCBcDjEz8hy6J4ECkECyNgVAA==);strokeWidth=3;points=[];labelBackgroundColor=#ffffff;rounded=0;html=1;whiteSpace=wrap;" vertex="1" parent="GmjQoCojNCX24J4jFpLi-25">
          <mxGeometry x="362.5552830188679" width="111.5554716981132" height="18.59259259259259" as="geometry" />
        </mxCell>
        <mxCell id="GmjQoCojNCX24J4jFpLi-30" style="vsdxID=140;fillColor=#FFFFFF;gradientColor=none;shape=stencil(UzV2Ls5ILEhVNTIoLinKz04tz0wpyVA1dlE1MsrMy0gtyiwBslSNXVWNndPyi1LTi/JL81Ig/IJEkEoQKze/DGRCBUSfoYEBSI+RQSUq3w2iOCczD49iPErJVIhmPZCBcDjEz8hy6J4ECkECyNgVAA==);strokeWidth=3;points=[];labelBackgroundColor=#ffffff;rounded=0;html=1;whiteSpace=wrap;" vertex="1" parent="GmjQoCojNCX24J4jFpLi-25">
          <mxGeometry x="474.1107547169811" width="111.5554716981132" height="18.59259259259259" as="geometry" />
        </mxCell>
        <mxCell id="GmjQoCojNCX24J4jFpLi-31" style="vsdxID=141;fillColor=#FFFFFF;gradientColor=none;shape=stencil(UzV2Ls5ILEhVNTIoLinKz04tz0wpyVA1dlE1MsrMy0gtyiwBslSNXVWNndPyi1LTi/JL81Ig/IJEkEoQKze/DGRCBUSfoYEBSI+RQSUq3w2iOCczD49iPErJVIhmPZCBcDjEz8hy6J4ECkECyNgVAA==);strokeWidth=3;points=[];labelBackgroundColor=#ffffff;rounded=0;html=1;whiteSpace=wrap;" vertex="1" parent="GmjQoCojNCX24J4jFpLi-25">
          <mxGeometry x="585.6662264150943" width="111.5554716981132" height="18.59259259259259" as="geometry" />
        </mxCell>
        <mxCell id="GmjQoCojNCX24J4jFpLi-32" style="vsdxID=142;fillColor=#FFFFFF;gradientColor=none;shape=stencil(UzV2Ls5ILEhVNTIoLinKz04tz0wpyVA1dlE1MsrMy0gtyiwBslSNXVWNndPyi1LTi/JL81Ig/IJEkEoQKze/DGRCBUSfoYEBSI+RQSUq3w2iOCczD49iPErJVIhmPZCBcDjEz8hy6J4ECkECyNgVAA==);strokeWidth=3;points=[];labelBackgroundColor=#ffffff;rounded=0;html=1;whiteSpace=wrap;" vertex="1" parent="GmjQoCojNCX24J4jFpLi-25">
          <mxGeometry x="697.2216981132075" width="111.5554716981132" height="18.59259259259259" as="geometry" />
        </mxCell>
        <mxCell id="GmjQoCojNCX24J4jFpLi-33" style="vsdxID=143;fillColor=#FFFFFF;gradientColor=none;shape=stencil(UzV2Ls5ILEhVNTIoLinKz04tz0wpyVA1dlE1MsrMy0gtyiwBslSNXVWNndPyi1LTi/JL81Ig/IJEkEoQKze/DGRCBUSfoYEBSI+RQSUq3w2iOCczD49iPErJVIhmPZCBcDjEz8hy6J4ECkECyNgVAA==);strokeWidth=3;points=[];labelBackgroundColor=#ffffff;rounded=0;html=1;whiteSpace=wrap;" vertex="1" parent="GmjQoCojNCX24J4jFpLi-25">
          <mxGeometry x="808.7771698113207" width="111.5554716981132" height="18.59259259259259" as="geometry" />
        </mxCell>
        <mxCell id="GmjQoCojNCX24J4jFpLi-34" style="vsdxID=144;fillColor=#FFFFFF;gradientColor=none;shape=stencil(UzV2Ls5ILEhVNTIoLinKz04tz0wpyVA1dlE1MsrMy0gtyiwBslSNXVWNndPyi1LTi/JL81Ig/IJEkEoQKze/DGRCBUSfoYEBSI+RQSUq3w2iOCczD49iPErJVIhmPZCBcDjEz8hy6J4ECkECyNgVAA==);strokeWidth=3;points=[];labelBackgroundColor=#ffffff;rounded=0;html=1;whiteSpace=wrap;" vertex="1" parent="GmjQoCojNCX24J4jFpLi-25">
          <mxGeometry x="920.3326415094339" width="111.5554716981132" height="18.59259259259259" as="geometry" />
        </mxCell>
        <mxCell id="GmjQoCojNCX24J4jFpLi-35" style="vsdxID=145;fillColor=#FFFFFF;gradientColor=none;shape=stencil(UzV2Ls5ILEhVNTIoLinKz04tz0wpyVA1dlE1MsrMy0gtyiwBslSNXVWNndPyi1LTi/JL81Ig/IJEkEoQKze/DGRCBUSfoYEBSI+RQSUq3w2iOCczD49iPErJVIhmPZCBcDjEz8hy6J4ECkECyNgVAA==);strokeWidth=3;points=[];labelBackgroundColor=#ffffff;rounded=0;html=1;whiteSpace=wrap;" vertex="1" parent="GmjQoCojNCX24J4jFpLi-25">
          <mxGeometry x="1031.8881132075471" width="111.5554716981132" height="18.59259259259259" as="geometry" />
        </mxCell>
        <mxCell id="GmjQoCojNCX24J4jFpLi-36" style="vsdxID=146;fillColor=#FFFFFF;gradientColor=none;shape=stencil(UzV2Ls5ILEhVNTIoLinKz04tz0wpyVA1dlE1MsrMy0gtyiwBslSNXVWNndPyi1LTi/JL81Ig/IJEkEoQKze/DGRCBUSfoYEBSI+RQSUq3w2iOCczD49iPErJVIhmPZCBcDjEz8hy6J4ECkECyNgVAA==);strokeWidth=3;points=[];labelBackgroundColor=#ffffff;rounded=0;html=1;whiteSpace=wrap;" vertex="1" parent="GmjQoCojNCX24J4jFpLi-25">
          <mxGeometry x="1143.4435849056604" width="111.5554716981132" height="18.59259259259259" as="geometry" />
        </mxCell>
        <mxCell id="GmjQoCojNCX24J4jFpLi-37" style="vsdxID=147;fillColor=#FFFFFF;gradientColor=none;shape=stencil(UzV2Ls5ILEhVNTIoLinKz04tz0wpyVA1dlE1MsrMy0gtyiwBslSNXVWNndPyi1LTi/JL81Ig/IJEkEoQKze/DGRCBUSfoYEBSI+RQSUq3w2iOCczD49iPErJVIhmPZCBcDjEz8hy6J4ECkECyNgVAA==);strokeWidth=3;points=[];labelBackgroundColor=#ffffff;rounded=0;html=1;whiteSpace=wrap;" vertex="1" parent="GmjQoCojNCX24J4jFpLi-25">
          <mxGeometry x="1254.9990566037734" width="111.5554716981132" height="18.59259259259259" as="geometry" />
        </mxCell>
        <mxCell id="GmjQoCojNCX24J4jFpLi-38" style="vsdxID=148;fillColor=#FFFFFF;gradientColor=none;shape=stencil(UzV2Ls5ILEhVNTIoLinKz04tz0wpyVA1dlE1MsrMy0gtyiwBslSNXVWNndPyi1LTi/JL81Ig/IJEkEoQKze/DGRCBUSfoYEBSI+RQSUq3w2iOCczD49iPErJVIhmPZCBcDjEz8hy6J4ECkECyNgVAA==);strokeWidth=3;points=[];labelBackgroundColor=#ffffff;rounded=0;html=1;whiteSpace=wrap;" vertex="1" parent="GmjQoCojNCX24J4jFpLi-25">
          <mxGeometry x="1366.5545283018866" width="111.5554716981132" height="18.59259259259259" as="geometry" />
        </mxCell>
        <mxCell id="GmjQoCojNCX24J4jFpLi-39" style="vsdxID=149;fillColor=#FFFFFF;gradientColor=none;shape=stencil(nY9LDoAgDERP0z3SI/i5BwkoRAUC+Lu9kGo0Lt3NtK/tFLCOWngFnMUU3Kg2I5MGbIBzY7UKJmUF2ALWvQtqCG6xkrwXhSxqdmvZsNNcxViZ4ewgT64jdDL2hf4E7wsXmsWThd549765c4l+xvYE);strokeWidth=3;points=[];labelBackgroundColor=#ffffff;rounded=0;html=1;whiteSpace=wrap;" vertex="1" parent="GmjQoCojNCX24J4jFpLi-25">
          <mxGeometry y="37.18518518518518" width="18.5925786163522" height="74.37037037037037" as="geometry" />
        </mxCell>
        <mxCell id="GmjQoCojNCX24J4jFpLi-40" style="vsdxID=153;fillColor=#FFFFFF;gradientColor=none;shape=stencil(nY9LDoAgDERP0z3SI/i5BwkoRAUC+Lu9kGo0Lt3NtK/tFLCOWngFnMUU3Kg2I5MGbIBzY7UKJmUF2ALWvQtqCG6xkrwXhSxqdmvZsNNcxViZ4ewgT64jdDL2hf4E7wsXmsWThd549765c4l+xvYE);strokeWidth=3;points=[];labelBackgroundColor=#ffffff;rounded=0;html=1;whiteSpace=wrap;" vertex="1" parent="GmjQoCojNCX24J4jFpLi-25">
          <mxGeometry y="111.55555555555554" width="18.5925786163522" height="74.37037037037037" as="geometry" />
        </mxCell>
        <mxCell id="GmjQoCojNCX24J4jFpLi-41" style="vsdxID=156;fillColor=#FFFFFF;gradientColor=none;shape=stencil(nY9LDoAgDERP0z3SI/i5BwkoRAUC+Lu9kGo0Lt3NtK/tFLCOWngFnMUU3Kg2I5MGbIBzY7UKJmUF2ALWvQtqCG6xkrwXhSxqdmvZsNNcxViZ4ewgT64jdDL2hf4E7wsXmsWThd549765c4l+xvYE);strokeWidth=3;points=[];labelBackgroundColor=#ffffff;rounded=0;html=1;whiteSpace=wrap;" vertex="1" parent="GmjQoCojNCX24J4jFpLi-25">
          <mxGeometry y="185.92592592592592" width="18.5925786163522" height="74.37037037037037" as="geometry" />
        </mxCell>
        <mxCell id="GmjQoCojNCX24J4jFpLi-42" style="vsdxID=159;fillColor=#FFFFFF;gradientColor=none;shape=stencil(nY9LDoAgDERP0z3SI/i5BwkoRAUC+Lu9kGo0Lt3NtK/tFLCOWngFnMUU3Kg2I5MGbIBzY7UKJmUF2ALWvQtqCG6xkrwXhSxqdmvZsNNcxViZ4ewgT64jdDL2hf4E7wsXmsWThd549765c4l+xvYE);strokeWidth=3;points=[];labelBackgroundColor=#ffffff;rounded=0;html=1;whiteSpace=wrap;" vertex="1" parent="GmjQoCojNCX24J4jFpLi-25">
          <mxGeometry y="260.2962962962963" width="18.5925786163522" height="74.37037037037037" as="geometry" />
        </mxCell>
        <mxCell id="GmjQoCojNCX24J4jFpLi-43" style="vsdxID=162;fillColor=#FFFFFF;gradientColor=none;shape=stencil(nY9LDoAgDERP0z3SI/i5BwkoRAUC+Lu9kGo0Lt3NtK/tFLCOWngFnMUU3Kg2I5MGbIBzY7UKJmUF2ALWvQtqCG6xkrwXhSxqdmvZsNNcxViZ4ewgT64jdDL2hf4E7wsXmsWThd549765c4l+xvYE);strokeWidth=3;points=[];labelBackgroundColor=#ffffff;rounded=0;html=1;whiteSpace=wrap;" vertex="1" parent="GmjQoCojNCX24J4jFpLi-25">
          <mxGeometry y="334.66666666666663" width="18.5925786163522" height="74.37037037037037" as="geometry" />
        </mxCell>
        <mxCell id="GmjQoCojNCX24J4jFpLi-44" style="vsdxID=165;fillColor=#FFFFFF;gradientColor=none;shape=stencil(nY9LDoAgDERP0z3SI/i5BwkoRAUC+Lu9kGo0Lt3NtK/tFLCOWngFnMUU3Kg2I5MGbIBzY7UKJmUF2ALWvQtqCG6xkrwXhSxqdmvZsNNcxViZ4ewgT64jdDL2hf4E7wsXmsWThd549765c4l+xvYE);strokeWidth=3;points=[];labelBackgroundColor=#ffffff;rounded=0;html=1;whiteSpace=wrap;" vertex="1" parent="GmjQoCojNCX24J4jFpLi-25">
          <mxGeometry y="409.037037037037" width="18.5925786163522" height="74.37037037037037" as="geometry" />
        </mxCell>
        <mxCell id="GmjQoCojNCX24J4jFpLi-45" style="vsdxID=168;fillColor=#FFFFFF;gradientColor=none;shape=stencil(nY9LDoAgDERP0z3SI/i5BwkoRAUC+Lu9kGo0Lt3NtK/tFLCOWngFnMUU3Kg2I5MGbIBzY7UKJmUF2ALWvQtqCG6xkrwXhSxqdmvZsNNcxViZ4ewgT64jdDL2hf4E7wsXmsWThd549765c4l+xvYE);strokeWidth=3;points=[];labelBackgroundColor=#ffffff;rounded=0;html=1;whiteSpace=wrap;" vertex="1" parent="GmjQoCojNCX24J4jFpLi-25">
          <mxGeometry y="483.4074074074074" width="18.5925786163522" height="74.37037037037037" as="geometry" />
        </mxCell>
        <mxCell id="GmjQoCojNCX24J4jFpLi-46" style="vsdxID=171;fillColor=#FFFFFF;gradientColor=none;shape=stencil(nY9LDoAgDERP0z3SI/i5BwkoRAUC+Lu9kGo0Lt3NtK/tFLCOWngFnMUU3Kg2I5MGbIBzY7UKJmUF2ALWvQtqCG6xkrwXhSxqdmvZsNNcxViZ4ewgT64jdDL2hf4E7wsXmsWThd549765c4l+xvYE);strokeWidth=3;points=[];labelBackgroundColor=#ffffff;rounded=0;html=1;whiteSpace=wrap;" vertex="1" parent="GmjQoCojNCX24J4jFpLi-25">
          <mxGeometry y="557.7777777777777" width="18.5925786163522" height="74.37037037037037" as="geometry" />
        </mxCell>
        <mxCell id="GmjQoCojNCX24J4jFpLi-47" style="vsdxID=174;fillColor=#FFFFFF;gradientColor=none;shape=stencil(nY9LDoAgDERP0z3SI/i5BwkoRAUC+Lu9kGo0Lt3NtK/tFLCOWngFnMUU3Kg2I5MGbIBzY7UKJmUF2ALWvQtqCG6xkrwXhSxqdmvZsNNcxViZ4ewgT64jdDL2hf4E7wsXmsWThd549765c4l+xvYE);strokeWidth=3;points=[];labelBackgroundColor=#ffffff;rounded=0;html=1;whiteSpace=wrap;" vertex="1" parent="GmjQoCojNCX24J4jFpLi-25">
          <mxGeometry y="632.1481481481482" width="18.5925786163522" height="74.37037037037037" as="geometry" />
        </mxCell>
        <mxCell id="GmjQoCojNCX24J4jFpLi-48" style="vsdxID=177;fillColor=#FFFFFF;gradientColor=none;shape=stencil(nY9LDoAgDERP0z3SI/i5BwkoRAUC+Lu9kGo0Lt3NtK/tFLCOWngFnMUU3Kg2I5MGbIBzY7UKJmUF2ALWvQtqCG6xkrwXhSxqdmvZsNNcxViZ4ewgT64jdDL2hf4E7wsXmsWThd549765c4l+xvYE);strokeWidth=3;points=[];labelBackgroundColor=#ffffff;rounded=0;html=1;whiteSpace=wrap;" vertex="1" parent="GmjQoCojNCX24J4jFpLi-25">
          <mxGeometry y="706.5185185185185" width="18.5925786163522" height="74.37037037037037" as="geometry" />
        </mxCell>
        <mxCell id="GmjQoCojNCX24J4jFpLi-49" style="vsdxID=180;fillColor=#FFFFFF;gradientColor=none;shape=stencil(nY9LDoAgDERP0z3SI/i5BwkoRAUC+Lu9kGo0Lt3NtK/tFLCOWngFnMUU3Kg2I5MGbIBzY7UKJmUF2ALWvQtqCG6xkrwXhSxqdmvZsNNcxViZ4ewgT64jdDL2hf4E7wsXmsWThd549765c4l+xvYE);strokeWidth=3;points=[];labelBackgroundColor=#ffffff;rounded=0;html=1;whiteSpace=wrap;" vertex="1" parent="GmjQoCojNCX24J4jFpLi-25">
          <mxGeometry y="780.8888888888888" width="18.5925786163522" height="74.37037037037037" as="geometry" />
        </mxCell>
        <mxCell id="GmjQoCojNCX24J4jFpLi-50" style="vsdxID=183;fillColor=#FFFFFF;gradientColor=none;shape=stencil(nY9LDoAgDERP0z3SI/i5BwkoRAUC+Lu9kGo0Lt3NtK/tFLCOWngFnMUU3Kg2I5MGbIBzY7UKJmUF2ALWvQtqCG6xkrwXhSxqdmvZsNNcxViZ4ewgT64jdDL2hf4E7wsXmsWThd549765c4l+xvYE);strokeWidth=3;points=[];labelBackgroundColor=#ffffff;rounded=0;html=1;whiteSpace=wrap;" vertex="1" parent="GmjQoCojNCX24J4jFpLi-25">
          <mxGeometry y="855.2592592592592" width="18.5925786163522" height="74.37037037037037" as="geometry" />
        </mxCell>
        <mxCell id="GmjQoCojNCX24J4jFpLi-51" style="vsdxID=185;edgeStyle=none;startArrow=none;endArrow=none;startSize=5;endSize=5;strokeWidth=3;spacingTop=0;spacingBottom=0;spacingLeft=0;spacingRight=0;verticalAlign=middle;html=1;labelBackgroundColor=#ffffff;rounded=0;" edge="1" parent="GmjQoCojNCX24J4jFpLi-25">
          <mxGeometry relative="1" as="geometry">
            <mxPoint as="offset" />
            <Array as="points" />
            <mxPoint y="929.6296296296296" as="sourcePoint" />
            <mxPoint x="18.5925786163522" y="929.6296296296296" as="targetPoint" />
          </mxGeometry>
        </mxCell>
        <mxCell id="GmjQoCojNCX24J4jFpLi-52" style="vsdxID=186;fillColor=#FFFFFF;gradientColor=none;shape=stencil(nY9LDoAgDERP0z3SI/i5BwkoRAUC+Lu9kGo0Lt3NtK/tFLCOWngFnMUU3Kg2I5MGbIBzY7UKJmUF2ALWvQtqCG6xkrwXhSxqdmvZsNNcxViZ4ewgT64jdDL2hf4E7wsXmsWThd549765c4l+xvYE);strokeWidth=3;points=[];labelBackgroundColor=#ffffff;rounded=0;html=1;whiteSpace=wrap;" vertex="1" parent="GmjQoCojNCX24J4jFpLi-25">
          <mxGeometry y="929.6296296296296" width="18.5925786163522" height="74.37037037037037" as="geometry" />
        </mxCell>
        <mxCell id="GmjQoCojNCX24J4jFpLi-53" style="vsdxID=187;edgeStyle=none;startArrow=none;endArrow=none;startSize=5;endSize=5;strokeWidth=3;spacingTop=0;spacingBottom=0;spacingLeft=0;spacingRight=0;verticalAlign=middle;html=1;labelBackgroundColor=#ffffff;rounded=0;" edge="1" parent="GmjQoCojNCX24J4jFpLi-25">
          <mxGeometry relative="1" as="geometry">
            <mxPoint as="offset" />
            <Array as="points" />
            <mxPoint y="1004" as="sourcePoint" />
            <mxPoint x="18.5925786163522" y="1004" as="targetPoint" />
          </mxGeometry>
        </mxCell>
        <mxCell id="GmjQoCojNCX24J4jFpLi-54" value="&lt;div style=&quot;font-size: 1px&quot;&gt;&lt;font style=&quot;font-size:25.4px;font-family:GOST type B;color:#000000;direction:ltr;letter-spacing:0px;line-height:120%;opacity:1&quot;&gt;&lt;i&gt;&lt;b&gt;01&lt;br/&gt;&lt;/b&gt;&lt;/i&gt;&lt;/font&gt;&lt;/div&gt;" style="verticalAlign=middle;align=center;vsdxID=188;fillColor=none;gradientColor=none;shape=stencil(nZBLDoAgDERP0z3SIyjew0SURgSD+Lu9kMZoXLhwN9O+tukAlrNpJg1SzDH4QW/URgNYgZTkjA4UkwJUgGXng+6DX1zLfmoymdXo17xh5zmRJ6Q42BWCfc2oJfdAr+Yv+AP9Cb7OJ3H/2JG1HNGz/84klThPVCc=);strokeColor=none;points=[];labelBackgroundColor=none;rounded=0;html=1;whiteSpace=wrap;" vertex="1" parent="GmjQoCojNCX24J4jFpLi-25">
          <mxGeometry x="55.7777358490566" width="55.7777358490566" height="26.02962962962963" as="geometry" />
        </mxCell>
        <mxCell id="GmjQoCojNCX24J4jFpLi-55" value="&lt;div style=&quot;font-size: 1px&quot;&gt;&lt;font style=&quot;font-size:25.4px;font-family:GOST type B;color:#000000;direction:ltr;letter-spacing:0px;line-height:120%;opacity:1&quot;&gt;&lt;i&gt;&lt;b&gt;02&lt;br/&gt;&lt;/b&gt;&lt;/i&gt;&lt;/font&gt;&lt;/div&gt;" style="verticalAlign=middle;align=center;vsdxID=189;fillColor=none;gradientColor=none;shape=stencil(nZBLDoAgDERP0z3SIyjew0SURgSD+Lu9kMZoXLhwN9O+tukAlrNpJg1SzDH4QW/URgNYgZTkjA4UkwJUgGXng+6DX1zLfmoymdXo17xh5zmRJ6Q42BWCfc2oJfdAr+Yv+AP9Cb7OJ3H/2JG1HNGz/84klThPVCc=);strokeColor=none;points=[];labelBackgroundColor=none;rounded=0;html=1;whiteSpace=wrap;" vertex="1" parent="GmjQoCojNCX24J4jFpLi-25">
          <mxGeometry x="167.3332075471698" width="55.7777358490566" height="26.02962962962963" as="geometry" />
        </mxCell>
        <mxCell id="GmjQoCojNCX24J4jFpLi-56" value="&lt;div style=&quot;font-size: 1px&quot;&gt;&lt;font style=&quot;font-size:25.4px;font-family:GOST type B;color:#000000;direction:ltr;letter-spacing:0px;line-height:120%;opacity:1&quot;&gt;&lt;i&gt;&lt;b&gt;03&lt;br/&gt;&lt;/b&gt;&lt;/i&gt;&lt;/font&gt;&lt;/div&gt;" style="verticalAlign=middle;align=center;vsdxID=190;fillColor=none;gradientColor=none;shape=stencil(nZBLDoAgDERP0z3SIyjew0SURgSD+Lu9kMZoXLhwN9O+tukAlrNpJg1SzDH4QW/URgNYgZTkjA4UkwJUgGXng+6DX1zLfmoymdXo17xh5zmRJ6Q42BWCfc2oJfdAr+Yv+AP9Cb7OJ3H/2JG1HNGz/84klThPVCc=);strokeColor=none;points=[];labelBackgroundColor=none;rounded=0;html=1;whiteSpace=wrap;" vertex="1" parent="GmjQoCojNCX24J4jFpLi-25">
          <mxGeometry x="278.888679245283" width="55.7777358490566" height="26.02962962962963" as="geometry" />
        </mxCell>
        <mxCell id="GmjQoCojNCX24J4jFpLi-57" value="&lt;div style=&quot;font-size: 1px&quot;&gt;&lt;font style=&quot;font-size:25.4px;font-family:GOST type B;color:#000000;direction:ltr;letter-spacing:0px;line-height:120%;opacity:1&quot;&gt;&lt;i&gt;&lt;b&gt;04&lt;br/&gt;&lt;/b&gt;&lt;/i&gt;&lt;/font&gt;&lt;/div&gt;" style="verticalAlign=middle;align=center;vsdxID=191;fillColor=none;gradientColor=none;shape=stencil(nZBLDoAgDERP0z3SIyjew0SURgSD+Lu9kMZoXLhwN9O+tukAlrNpJg1SzDH4QW/URgNYgZTkjA4UkwJUgGXng+6DX1zLfmoymdXo17xh5zmRJ6Q42BWCfc2oJfdAr+Yv+AP9Cb7OJ3H/2JG1HNGz/84klThPVCc=);strokeColor=none;points=[];labelBackgroundColor=none;rounded=0;html=1;whiteSpace=wrap;" vertex="1" parent="GmjQoCojNCX24J4jFpLi-25">
          <mxGeometry x="390.4441509433962" width="55.7777358490566" height="26.02962962962963" as="geometry" />
        </mxCell>
        <mxCell id="GmjQoCojNCX24J4jFpLi-58" value="&lt;div style=&quot;font-size: 1px&quot;&gt;&lt;font style=&quot;font-size:25.4px;font-family:GOST type B;color:#000000;direction:ltr;letter-spacing:0px;line-height:120%;opacity:1&quot;&gt;&lt;i&gt;&lt;b&gt;05&lt;br/&gt;&lt;/b&gt;&lt;/i&gt;&lt;/font&gt;&lt;/div&gt;" style="verticalAlign=middle;align=center;vsdxID=192;fillColor=none;gradientColor=none;shape=stencil(nZBLDoAgDERP0z3SIyjew0SURgSD+Lu9kMZoXLhwN9O+tukAlrNpJg1SzDH4QW/URgNYgZTkjA4UkwJUgGXng+6DX1zLfmoymdXo17xh5zmRJ6Q42BWCfc2oJfdAr+Yv+AP9Cb7OJ3H/2JG1HNGz/84klThPVCc=);strokeColor=none;points=[];labelBackgroundColor=none;rounded=0;html=1;whiteSpace=wrap;" vertex="1" parent="GmjQoCojNCX24J4jFpLi-25">
          <mxGeometry x="501.9996226415094" width="55.7777358490566" height="26.02962962962963" as="geometry" />
        </mxCell>
        <mxCell id="GmjQoCojNCX24J4jFpLi-59" value="&lt;div style=&quot;font-size: 1px&quot;&gt;&lt;font style=&quot;font-size:25.4px;font-family:GOST type B;color:#000000;direction:ltr;letter-spacing:0px;line-height:120%;opacity:1&quot;&gt;&lt;i&gt;&lt;b&gt;06&lt;br/&gt;&lt;/b&gt;&lt;/i&gt;&lt;/font&gt;&lt;/div&gt;" style="verticalAlign=middle;align=center;vsdxID=193;fillColor=none;gradientColor=none;shape=stencil(nZBLDoAgDERP0z3SIyjew0SURgSD+Lu9kMZoXLhwN9O+tukAlrNpJg1SzDH4QW/URgNYgZTkjA4UkwJUgGXng+6DX1zLfmoymdXo17xh5zmRJ6Q42BWCfc2oJfdAr+Yv+AP9Cb7OJ3H/2JG1HNGz/84klThPVCc=);strokeColor=none;points=[];labelBackgroundColor=none;rounded=0;html=1;whiteSpace=wrap;" vertex="1" parent="GmjQoCojNCX24J4jFpLi-25">
          <mxGeometry x="613.5550943396227" width="55.7777358490566" height="26.02962962962963" as="geometry" />
        </mxCell>
        <mxCell id="GmjQoCojNCX24J4jFpLi-60" value="&lt;div style=&quot;font-size: 1px&quot;&gt;&lt;font style=&quot;font-size:25.4px;font-family:GOST type B;color:#000000;direction:ltr;letter-spacing:0px;line-height:120%;opacity:1&quot;&gt;&lt;i&gt;&lt;b&gt;07&lt;br/&gt;&lt;/b&gt;&lt;/i&gt;&lt;/font&gt;&lt;/div&gt;" style="verticalAlign=middle;align=center;vsdxID=194;fillColor=none;gradientColor=none;shape=stencil(nZBLDoAgDERP0z3SIyjew0SURgSD+Lu9kMZoXLhwN9O+tukAlrNpJg1SzDH4QW/URgNYgZTkjA4UkwJUgGXng+6DX1zLfmoymdXo17xh5zmRJ6Q42BWCfc2oJfdAr+Yv+AP9Cb7OJ3H/2JG1HNGz/84klThPVCc=);strokeColor=none;points=[];labelBackgroundColor=none;rounded=0;html=1;whiteSpace=wrap;" vertex="1" parent="GmjQoCojNCX24J4jFpLi-25">
          <mxGeometry x="725.1105660377358" width="55.7777358490566" height="26.02962962962963" as="geometry" />
        </mxCell>
        <mxCell id="GmjQoCojNCX24J4jFpLi-61" value="&lt;div style=&quot;font-size: 1px&quot;&gt;&lt;font style=&quot;font-size:25.4px;font-family:GOST type B;color:#000000;direction:ltr;letter-spacing:0px;line-height:120%;opacity:1&quot;&gt;&lt;i&gt;&lt;b&gt;08&lt;br/&gt;&lt;/b&gt;&lt;/i&gt;&lt;/font&gt;&lt;/div&gt;" style="verticalAlign=middle;align=center;vsdxID=195;fillColor=none;gradientColor=none;shape=stencil(nZBLDoAgDERP0z3SIyjew0SURgSD+Lu9kMZoXLhwN9O+tukAlrNpJg1SzDH4QW/URgNYgZTkjA4UkwJUgGXng+6DX1zLfmoymdXo17xh5zmRJ6Q42BWCfc2oJfdAr+Yv+AP9Cb7OJ3H/2JG1HNGz/84klThPVCc=);strokeColor=none;points=[];labelBackgroundColor=none;rounded=0;html=1;whiteSpace=wrap;" vertex="1" parent="GmjQoCojNCX24J4jFpLi-25">
          <mxGeometry x="836.666037735849" width="55.7777358490566" height="26.02962962962963" as="geometry" />
        </mxCell>
        <mxCell id="GmjQoCojNCX24J4jFpLi-62" value="&lt;div style=&quot;font-size: 1px&quot;&gt;&lt;font style=&quot;font-size:25.4px;font-family:GOST type B;color:#000000;direction:ltr;letter-spacing:0px;line-height:120%;opacity:1&quot;&gt;&lt;i&gt;&lt;b&gt;09&lt;br/&gt;&lt;/b&gt;&lt;/i&gt;&lt;/font&gt;&lt;/div&gt;" style="verticalAlign=middle;align=center;vsdxID=196;fillColor=none;gradientColor=none;shape=stencil(nZBLDoAgDERP0z3SIyjew0SURgSD+Lu9kMZoXLhwN9O+tukAlrNpJg1SzDH4QW/URgNYgZTkjA4UkwJUgGXng+6DX1zLfmoymdXo17xh5zmRJ6Q42BWCfc2oJfdAr+Yv+AP9Cb7OJ3H/2JG1HNGz/84klThPVCc=);strokeColor=none;points=[];labelBackgroundColor=none;rounded=0;html=1;whiteSpace=wrap;" vertex="1" parent="GmjQoCojNCX24J4jFpLi-25">
          <mxGeometry x="948.2215094339622" width="55.7777358490566" height="26.02962962962963" as="geometry" />
        </mxCell>
        <mxCell id="GmjQoCojNCX24J4jFpLi-63" value="&lt;div style=&quot;font-size: 1px&quot;&gt;&lt;font style=&quot;font-size:25.4px;font-family:GOST type B;color:#000000;direction:ltr;letter-spacing:0px;line-height:120%;opacity:1&quot;&gt;&lt;i&gt;&lt;b&gt;10&lt;br/&gt;&lt;/b&gt;&lt;/i&gt;&lt;/font&gt;&lt;/div&gt;" style="verticalAlign=middle;align=center;vsdxID=197;fillColor=none;gradientColor=none;shape=stencil(nZBLDoAgDERP0z3SIyjew0SURgSD+Lu9kMZoXLhwN9O+tukAlrNpJg1SzDH4QW/URgNYgZTkjA4UkwJUgGXng+6DX1zLfmoymdXo17xh5zmRJ6Q42BWCfc2oJfdAr+Yv+AP9Cb7OJ3H/2JG1HNGz/84klThPVCc=);strokeColor=none;points=[];labelBackgroundColor=none;rounded=0;html=1;whiteSpace=wrap;" vertex="1" parent="GmjQoCojNCX24J4jFpLi-25">
          <mxGeometry x="1059.7769811320754" width="55.7777358490566" height="26.02962962962963" as="geometry" />
        </mxCell>
        <mxCell id="GmjQoCojNCX24J4jFpLi-64" value="&lt;div style=&quot;font-size: 1px&quot;&gt;&lt;font style=&quot;font-size:25.4px;font-family:GOST type B;color:#000000;direction:ltr;letter-spacing:0px;line-height:120%;opacity:1&quot;&gt;&lt;i&gt;&lt;b&gt;11&lt;br/&gt;&lt;/b&gt;&lt;/i&gt;&lt;/font&gt;&lt;/div&gt;" style="verticalAlign=middle;align=center;vsdxID=199;fillColor=none;gradientColor=none;shape=stencil(nZBLDoAgDERP0z3SIyjew0SURgSD+Lu9kMZoXLhwN9O+tukAlrNpJg1SzDH4QW/URgNYgZTkjA4UkwJUgGXng+6DX1zLfmoymdXo17xh5zmRJ6Q42BWCfc2oJfdAr+Yv+AP9Cb7OJ3H/2JG1HNGz/84klThPVCc=);strokeColor=none;points=[];labelBackgroundColor=none;rounded=0;html=1;whiteSpace=wrap;" vertex="1" parent="GmjQoCojNCX24J4jFpLi-25">
          <mxGeometry x="1171.3324528301887" width="55.7777358490566" height="26.02962962962963" as="geometry" />
        </mxCell>
        <mxCell id="GmjQoCojNCX24J4jFpLi-65" value="&lt;div style=&quot;font-size: 1px&quot;&gt;&lt;font style=&quot;font-size:25.4px;font-family:GOST type B;color:#000000;direction:ltr;letter-spacing:0px;line-height:120%;opacity:1&quot;&gt;&lt;i&gt;&lt;b&gt;12&lt;br/&gt;&lt;/b&gt;&lt;/i&gt;&lt;/font&gt;&lt;/div&gt;" style="verticalAlign=middle;align=center;vsdxID=200;fillColor=none;gradientColor=none;shape=stencil(nZBLDoAgDERP0z3SIyjew0SURgSD+Lu9kMZoXLhwN9O+tukAlrNpJg1SzDH4QW/URgNYgZTkjA4UkwJUgGXng+6DX1zLfmoymdXo17xh5zmRJ6Q42BWCfc2oJfdAr+Yv+AP9Cb7OJ3H/2JG1HNGz/84klThPVCc=);strokeColor=none;points=[];labelBackgroundColor=none;rounded=0;html=1;whiteSpace=wrap;" vertex="1" parent="GmjQoCojNCX24J4jFpLi-25">
          <mxGeometry x="1282.8879245283017" width="55.7777358490566" height="26.02962962962963" as="geometry" />
        </mxCell>
        <mxCell id="GmjQoCojNCX24J4jFpLi-66" value="&lt;div style=&quot;font-size: 1px&quot;&gt;&lt;font style=&quot;font-size:25.4px;font-family:GOST type B;color:#000000;direction:ltr;letter-spacing:0px;line-height:120%;opacity:1&quot;&gt;&lt;i&gt;&lt;b&gt;13&lt;br/&gt;&lt;/b&gt;&lt;/i&gt;&lt;/font&gt;&lt;/div&gt;" style="verticalAlign=middle;align=center;vsdxID=201;fillColor=none;gradientColor=none;shape=stencil(nZBLDoAgDERP0z3SIyjew0SURgSD+Lu9kMZoXLhwN9O+tukAlrNpJg1SzDH4QW/URgNYgZTkjA4UkwJUgGXng+6DX1zLfmoymdXo17xh5zmRJ6Q42BWCfc2oJfdAr+Yv+AP9Cb7OJ3H/2JG1HNGz/84klThPVCc=);strokeColor=none;points=[];labelBackgroundColor=none;rounded=0;html=1;whiteSpace=wrap;" vertex="1" parent="GmjQoCojNCX24J4jFpLi-25">
          <mxGeometry x="1394.443396226415" width="55.7777358490566" height="26.02962962962963" as="geometry" />
        </mxCell>
        <mxCell id="GmjQoCojNCX24J4jFpLi-67" value="&lt;div style=&quot;font-size: 1px&quot;&gt;&lt;font style=&quot;font-size:25.4px;font-family:GOST type B;color:#000000;direction:ltr;letter-spacing:0px;line-height:120%;opacity:1&quot;&gt;&lt;i&gt;&lt;b&gt;A&lt;br/&gt;&lt;/b&gt;&lt;/i&gt;&lt;/font&gt;&lt;/div&gt;" style="verticalAlign=middle;align=center;vsdxID=202;fillColor=none;gradientColor=none;shape=stencil(nZBLDoAgDERP0z3SIyjew0SURgSD+Lu9kMZoXLhwN9O+tukAlrNpJg1SzDH4QW/URgNYgZTkjA4UkwJUgGXng+6DX1zLfmoymdXo17xh5zmRJ6Q42BWCfc2oJfdAr+Yv+AP9Cb7OJ3H/2JG1HNGz/84klThPVCc=);strokeColor=none;points=[];labelBackgroundColor=none;rounded=0;html=1;whiteSpace=wrap;" vertex="1" parent="GmjQoCojNCX24J4jFpLi-25">
          <mxGeometry y="55.77777777777777" width="27.8888679245283" height="37.18518518518518" as="geometry" />
        </mxCell>
        <mxCell id="GmjQoCojNCX24J4jFpLi-68" value="&lt;div style=&quot;font-size: 1px&quot;&gt;&lt;font style=&quot;font-size:25.4px;font-family:GOST type B;color:#000000;direction:ltr;letter-spacing:0px;line-height:120%;opacity:1&quot;&gt;&lt;i&gt;&lt;b&gt;B&lt;br/&gt;&lt;/b&gt;&lt;/i&gt;&lt;/font&gt;&lt;/div&gt;" style="verticalAlign=middle;align=center;vsdxID=203;fillColor=none;gradientColor=none;shape=stencil(nZBLDoAgDERP0z3SIyjew0SURgSD+Lu9kMZoXLhwN9O+tukAlrNpJg1SzDH4QW/URgNYgZTkjA4UkwJUgGXng+6DX1zLfmoymdXo17xh5zmRJ6Q42BWCfc2oJfdAr+Yv+AP9Cb7OJ3H/2JG1HNGz/84klThPVCc=);strokeColor=none;points=[];labelBackgroundColor=none;rounded=0;html=1;whiteSpace=wrap;" vertex="1" parent="GmjQoCojNCX24J4jFpLi-25">
          <mxGeometry y="130.14814814814815" width="27.8888679245283" height="37.18518518518518" as="geometry" />
        </mxCell>
        <mxCell id="GmjQoCojNCX24J4jFpLi-69" value="&lt;div style=&quot;font-size: 1px&quot;&gt;&lt;font style=&quot;font-size:25.4px;font-family:GOST type B;color:#000000;direction:ltr;letter-spacing:0px;line-height:120%;opacity:1&quot;&gt;&lt;i&gt;&lt;b&gt;C&lt;br/&gt;&lt;/b&gt;&lt;/i&gt;&lt;/font&gt;&lt;/div&gt;" style="verticalAlign=middle;align=center;vsdxID=204;fillColor=none;gradientColor=none;shape=stencil(nZBLDoAgDERP0z3SIyjew0SURgSD+Lu9kMZoXLhwN9O+tukAlrNpJg1SzDH4QW/URgNYgZTkjA4UkwJUgGXng+6DX1zLfmoymdXo17xh5zmRJ6Q42BWCfc2oJfdAr+Yv+AP9Cb7OJ3H/2JG1HNGz/84klThPVCc=);strokeColor=none;points=[];labelBackgroundColor=none;rounded=0;html=1;whiteSpace=wrap;" vertex="1" parent="GmjQoCojNCX24J4jFpLi-25">
          <mxGeometry y="204.5185185185185" width="27.8888679245283" height="37.18518518518518" as="geometry" />
        </mxCell>
        <mxCell id="GmjQoCojNCX24J4jFpLi-70" value="&lt;div style=&quot;font-size: 1px&quot;&gt;&lt;font style=&quot;font-size:25.4px;font-family:GOST type B;color:#000000;direction:ltr;letter-spacing:0px;line-height:120%;opacity:1&quot;&gt;&lt;i&gt;&lt;b&gt;D&lt;br/&gt;&lt;/b&gt;&lt;/i&gt;&lt;/font&gt;&lt;/div&gt;" style="verticalAlign=middle;align=center;vsdxID=205;fillColor=none;gradientColor=none;shape=stencil(nZBLDoAgDERP0z3SIyjew0SURgSD+Lu9kMZoXLhwN9O+tukAlrNpJg1SzDH4QW/URgNYgZTkjA4UkwJUgGXng+6DX1zLfmoymdXo17xh5zmRJ6Q42BWCfc2oJfdAr+Yv+AP9Cb7OJ3H/2JG1HNGz/84klThPVCc=);strokeColor=none;points=[];labelBackgroundColor=none;rounded=0;html=1;whiteSpace=wrap;" vertex="1" parent="GmjQoCojNCX24J4jFpLi-25">
          <mxGeometry y="278.88888888888886" width="27.8888679245283" height="37.18518518518518" as="geometry" />
        </mxCell>
        <mxCell id="GmjQoCojNCX24J4jFpLi-71" value="&lt;div style=&quot;font-size: 1px&quot;&gt;&lt;font style=&quot;font-size:25.4px;font-family:GOST type B;color:#000000;direction:ltr;letter-spacing:0px;line-height:120%;opacity:1&quot;&gt;&lt;i&gt;&lt;b&gt;E&lt;br/&gt;&lt;/b&gt;&lt;/i&gt;&lt;/font&gt;&lt;/div&gt;" style="verticalAlign=middle;align=center;vsdxID=206;fillColor=none;gradientColor=none;shape=stencil(nZBLDoAgDERP0z3SIyjew0SURgSD+Lu9kMZoXLhwN9O+tukAlrNpJg1SzDH4QW/URgNYgZTkjA4UkwJUgGXng+6DX1zLfmoymdXo17xh5zmRJ6Q42BWCfc2oJfdAr+Yv+AP9Cb7OJ3H/2JG1HNGz/84klThPVCc=);strokeColor=none;points=[];labelBackgroundColor=none;rounded=0;html=1;whiteSpace=wrap;" vertex="1" parent="GmjQoCojNCX24J4jFpLi-25">
          <mxGeometry y="353.25925925925924" width="27.8888679245283" height="37.18518518518518" as="geometry" />
        </mxCell>
        <mxCell id="GmjQoCojNCX24J4jFpLi-72" value="&lt;div style=&quot;font-size: 1px&quot;&gt;&lt;font style=&quot;font-size:25.4px;font-family:GOST type B;color:#000000;direction:ltr;letter-spacing:0px;line-height:120%;opacity:1&quot;&gt;&lt;i&gt;&lt;b&gt;F&lt;br/&gt;&lt;/b&gt;&lt;/i&gt;&lt;/font&gt;&lt;/div&gt;" style="verticalAlign=middle;align=center;vsdxID=207;fillColor=none;gradientColor=none;shape=stencil(nZBLDoAgDERP0z3SIyjew0SURgSD+Lu9kMZoXLhwN9O+tukAlrNpJg1SzDH4QW/URgNYgZTkjA4UkwJUgGXng+6DX1zLfmoymdXo17xh5zmRJ6Q42BWCfc2oJfdAr+Yv+AP9Cb7OJ3H/2JG1HNGz/84klThPVCc=);strokeColor=none;points=[];labelBackgroundColor=none;rounded=0;html=1;whiteSpace=wrap;" vertex="1" parent="GmjQoCojNCX24J4jFpLi-25">
          <mxGeometry y="427.6296296296296" width="27.8888679245283" height="37.18518518518518" as="geometry" />
        </mxCell>
        <mxCell id="GmjQoCojNCX24J4jFpLi-73" value="&lt;div style=&quot;font-size: 1px&quot;&gt;&lt;font style=&quot;font-size:25.4px;font-family:GOST type B;color:#000000;direction:ltr;letter-spacing:0px;line-height:120%;opacity:1&quot;&gt;&lt;i&gt;&lt;b&gt;G&lt;br/&gt;&lt;/b&gt;&lt;/i&gt;&lt;/font&gt;&lt;/div&gt;" style="verticalAlign=middle;align=center;vsdxID=208;fillColor=none;gradientColor=none;shape=stencil(nZBLDoAgDERP0z3SIyjew0SURgSD+Lu9kMZoXLhwN9O+tukAlrNpJg1SzDH4QW/URgNYgZTkjA4UkwJUgGXng+6DX1zLfmoymdXo17xh5zmRJ6Q42BWCfc2oJfdAr+Yv+AP9Cb7OJ3H/2JG1HNGz/84klThPVCc=);strokeColor=none;points=[];labelBackgroundColor=none;rounded=0;html=1;whiteSpace=wrap;" vertex="1" parent="GmjQoCojNCX24J4jFpLi-25">
          <mxGeometry y="502" width="27.8888679245283" height="37.18518518518518" as="geometry" />
        </mxCell>
        <mxCell id="GmjQoCojNCX24J4jFpLi-74" value="&lt;div style=&quot;font-size: 1px&quot;&gt;&lt;font style=&quot;font-size:25.4px;font-family:GOST type B;color:#000000;direction:ltr;letter-spacing:0px;line-height:120%;opacity:1&quot;&gt;&lt;i&gt;&lt;b&gt;H&lt;br/&gt;&lt;/b&gt;&lt;/i&gt;&lt;/font&gt;&lt;/div&gt;" style="verticalAlign=middle;align=center;vsdxID=209;fillColor=none;gradientColor=none;shape=stencil(nZBLDoAgDERP0z3SIyjew0SURgSD+Lu9kMZoXLhwN9O+tukAlrNpJg1SzDH4QW/URgNYgZTkjA4UkwJUgGXng+6DX1zLfmoymdXo17xh5zmRJ6Q42BWCfc2oJfdAr+Yv+AP9Cb7OJ3H/2JG1HNGz/84klThPVCc=);strokeColor=none;points=[];labelBackgroundColor=none;rounded=0;html=1;whiteSpace=wrap;" vertex="1" parent="GmjQoCojNCX24J4jFpLi-25">
          <mxGeometry y="576.3703703703703" width="27.8888679245283" height="37.18518518518518" as="geometry" />
        </mxCell>
        <mxCell id="GmjQoCojNCX24J4jFpLi-75" value="&lt;div style=&quot;font-size: 1px&quot;&gt;&lt;font style=&quot;font-size:25.4px;font-family:GOST type B;color:#000000;direction:ltr;letter-spacing:0px;line-height:120%;opacity:1&quot;&gt;&lt;i&gt;&lt;b&gt;I&lt;br/&gt;&lt;/b&gt;&lt;/i&gt;&lt;/font&gt;&lt;/div&gt;" style="verticalAlign=middle;align=center;vsdxID=210;fillColor=none;gradientColor=none;shape=stencil(nZBLDoAgDERP0z3SIyjew0SURgSD+Lu9kMZoXLhwN9O+tukAlrNpJg1SzDH4QW/URgNYgZTkjA4UkwJUgGXng+6DX1zLfmoymdXo17xh5zmRJ6Q42BWCfc2oJfdAr+Yv+AP9Cb7OJ3H/2JG1HNGz/84klThPVCc=);strokeColor=none;points=[];labelBackgroundColor=none;rounded=0;html=1;whiteSpace=wrap;" vertex="1" parent="GmjQoCojNCX24J4jFpLi-25">
          <mxGeometry y="650.7407407407408" width="27.8888679245283" height="37.18518518518518" as="geometry" />
        </mxCell>
        <mxCell id="GmjQoCojNCX24J4jFpLi-76" value="&lt;div style=&quot;font-size: 1px&quot;&gt;&lt;font style=&quot;font-size:25.4px;font-family:GOST type B;color:#000000;direction:ltr;letter-spacing:0px;line-height:120%;opacity:1&quot;&gt;&lt;i&gt;&lt;b&gt;J&lt;br/&gt;&lt;/b&gt;&lt;/i&gt;&lt;/font&gt;&lt;/div&gt;" style="verticalAlign=middle;align=center;vsdxID=211;fillColor=none;gradientColor=none;shape=stencil(nZBLDoAgDERP0z3SIyjew0SURgSD+Lu9kMZoXLhwN9O+tukAlrNpJg1SzDH4QW/URgNYgZTkjA4UkwJUgGXng+6DX1zLfmoymdXo17xh5zmRJ6Q42BWCfc2oJfdAr+Yv+AP9Cb7OJ3H/2JG1HNGz/84klThPVCc=);strokeColor=none;points=[];labelBackgroundColor=none;rounded=0;html=1;whiteSpace=wrap;" vertex="1" parent="GmjQoCojNCX24J4jFpLi-25">
          <mxGeometry y="725.1111111111111" width="27.8888679245283" height="37.18518518518518" as="geometry" />
        </mxCell>
        <mxCell id="GmjQoCojNCX24J4jFpLi-77" value="&lt;div style=&quot;font-size: 1px&quot;&gt;&lt;font style=&quot;font-size:25.4px;font-family:GOST type B;color:#000000;direction:ltr;letter-spacing:0px;line-height:120%;opacity:1&quot;&gt;&lt;i&gt;&lt;b&gt;K&lt;br/&gt;&lt;/b&gt;&lt;/i&gt;&lt;/font&gt;&lt;/div&gt;" style="verticalAlign=middle;align=center;vsdxID=212;fillColor=none;gradientColor=none;shape=stencil(nZBLDoAgDERP0z3SIyjew0SURgSD+Lu9kMZoXLhwN9O+tukAlrNpJg1SzDH4QW/URgNYgZTkjA4UkwJUgGXng+6DX1zLfmoymdXo17xh5zmRJ6Q42BWCfc2oJfdAr+Yv+AP9Cb7OJ3H/2JG1HNGz/84klThPVCc=);strokeColor=none;points=[];labelBackgroundColor=none;rounded=0;html=1;whiteSpace=wrap;" vertex="1" parent="GmjQoCojNCX24J4jFpLi-25">
          <mxGeometry y="799.4814814814814" width="27.8888679245283" height="37.18518518518518" as="geometry" />
        </mxCell>
        <mxCell id="GmjQoCojNCX24J4jFpLi-78" value="&lt;div style=&quot;font-size: 1px&quot;&gt;&lt;font style=&quot;font-size:25.4px;font-family:GOST type B;color:#000000;direction:ltr;letter-spacing:0px;line-height:120%;opacity:1&quot;&gt;&lt;i&gt;&lt;b&gt;L&lt;br/&gt;&lt;/b&gt;&lt;/i&gt;&lt;/font&gt;&lt;/div&gt;" style="verticalAlign=middle;align=center;vsdxID=213;fillColor=none;gradientColor=none;shape=stencil(nZBLDoAgDERP0z3SIyjew0SURgSD+Lu9kMZoXLhwN9O+tukAlrNpJg1SzDH4QW/URgNYgZTkjA4UkwJUgGXng+6DX1zLfmoymdXo17xh5zmRJ6Q42BWCfc2oJfdAr+Yv+AP9Cb7OJ3H/2JG1HNGz/84klThPVCc=);strokeColor=none;points=[];labelBackgroundColor=none;rounded=0;html=1;whiteSpace=wrap;" vertex="1" parent="GmjQoCojNCX24J4jFpLi-25">
          <mxGeometry y="873.8518518518518" width="27.8888679245283" height="37.18518518518518" as="geometry" />
        </mxCell>
        <mxCell id="GmjQoCojNCX24J4jFpLi-79" value="&lt;div style=&quot;font-size: 1px&quot;&gt;&lt;font style=&quot;font-size:25.4px;font-family:GOST type B;color:#000000;direction:ltr;letter-spacing:0px;line-height:120%;opacity:1&quot;&gt;&lt;i&gt;&lt;b&gt;M&lt;br/&gt;&lt;/b&gt;&lt;/i&gt;&lt;/font&gt;&lt;/div&gt;" style="verticalAlign=middle;align=center;vsdxID=214;fillColor=none;gradientColor=none;shape=stencil(nZBLDoAgDERP0z3SIyjew0SURgSD+Lu9kMZoXLhwN9O+tukAlrNpJg1SzDH4QW/URgNYgZTkjA4UkwJUgGXng+6DX1zLfmoymdXo17xh5zmRJ6Q42BWCfc2oJfdAr+Yv+AP9Cb7OJ3H/2JG1HNGz/84klThPVCc=);strokeColor=none;points=[];labelBackgroundColor=none;rounded=0;html=1;whiteSpace=wrap;" vertex="1" parent="GmjQoCojNCX24J4jFpLi-25">
          <mxGeometry y="948.2222222222222" width="27.8888679245283" height="37.18518518518518" as="geometry" />
        </mxCell>
        <mxCell id="GmjQoCojNCX24J4jFpLi-80" value="&lt;font style=&quot;font-size: 12px;&quot; face=&quot;Helvetica&quot;&gt;Начало&lt;/font&gt;" style="ellipse;whiteSpace=wrap;html=1;" vertex="1" parent="GmjQoCojNCX24J4jFpLi-25">
          <mxGeometry x="254" y="50.78" width="98.22" height="53" as="geometry" />
        </mxCell>
        <mxCell id="GmjQoCojNCX24J4jFpLi-81" value="Авторизация пользователя в системе" style="rounded=0;whiteSpace=wrap;html=1;" vertex="1" parent="GmjQoCojNCX24J4jFpLi-25">
          <mxGeometry x="246.56" y="176" width="113.11" height="76.24" as="geometry" />
        </mxCell>
        <mxCell id="GmjQoCojNCX24J4jFpLi-82" value="&lt;font style=&quot;font-size: 11px;&quot;&gt;Пользователь&lt;/font&gt;&lt;div&gt;&lt;font style=&quot;font-size: 11px;&quot;&gt;&amp;nbsp;является преподавателем?&lt;/font&gt;&lt;/div&gt;" style="rhombus;whiteSpace=wrap;html=1;" vertex="1" parent="GmjQoCojNCX24J4jFpLi-25">
          <mxGeometry x="230" y="262" width="144.44" height="88" as="geometry" />
        </mxCell>
        <mxCell id="GmjQoCojNCX24J4jFpLi-83" value="&lt;font style=&quot;font-size: 12px;&quot;&gt;Ввод основных данных курса&lt;/font&gt;" style="rounded=0;whiteSpace=wrap;html=1;" vertex="1" parent="GmjQoCojNCX24J4jFpLi-25">
          <mxGeometry x="133.45" y="409.03999999999985" width="113.11" height="76.24" as="geometry" />
        </mxCell>
        <mxCell id="GmjQoCojNCX24J4jFpLi-84" value="&lt;font style=&quot;font-size: 12px;&quot;&gt;Ошибка права доступа&lt;/font&gt;" style="rounded=0;whiteSpace=wrap;html=1;" vertex="1" parent="GmjQoCojNCX24J4jFpLi-25">
          <mxGeometry x="361" y="409.04" width="113.11" height="76.24" as="geometry" />
        </mxCell>
        <mxCell id="GmjQoCojNCX24J4jFpLi-85" value="&lt;font style=&quot;font-size: 12px;&quot;&gt;Создание программы курса&lt;/font&gt;" style="rounded=0;whiteSpace=wrap;html=1;" vertex="1" parent="GmjQoCojNCX24J4jFpLi-25">
          <mxGeometry x="133.5" y="557.7799999999997" width="113.11" height="76.24" as="geometry" />
        </mxCell>
        <mxCell id="GmjQoCojNCX24J4jFpLi-86" value="&lt;font style=&quot;font-size: 12px;&quot;&gt;Разработка ресурсов&lt;/font&gt;" style="rounded=0;whiteSpace=wrap;html=1;" vertex="1" parent="GmjQoCojNCX24J4jFpLi-25">
          <mxGeometry x="133.5" y="706.5199999999995" width="113.11" height="76.24" as="geometry" />
        </mxCell>
        <mxCell id="GmjQoCojNCX24J4jFpLi-87" value="&lt;font style=&quot;font-size: 12px;&quot;&gt;Создание тестового материала&lt;/font&gt;" style="rounded=0;whiteSpace=wrap;html=1;" vertex="1" parent="GmjQoCojNCX24J4jFpLi-25">
          <mxGeometry x="698.56" y="175.99999999999977" width="113.11" height="76.24" as="geometry" />
        </mxCell>
        <mxCell id="GmjQoCojNCX24J4jFpLi-88" value="2" style="ellipse;whiteSpace=wrap;html=1;aspect=fixed;" vertex="1" parent="GmjQoCojNCX24J4jFpLi-25">
          <mxGeometry x="166.55999999999995" y="860" width="47" height="47" as="geometry" />
        </mxCell>
        <mxCell id="GmjQoCojNCX24J4jFpLi-89" value="1" style="ellipse;whiteSpace=wrap;html=1;aspect=fixed;" vertex="1" parent="GmjQoCojNCX24J4jFpLi-25">
          <mxGeometry x="394.44000000000005" y="565.4000000000001" width="47" height="47" as="geometry" />
        </mxCell>
        <mxCell id="GmjQoCojNCX24J4jFpLi-90" value="2" style="ellipse;whiteSpace=wrap;html=1;aspect=fixed;" vertex="1" parent="GmjQoCojNCX24J4jFpLi-25">
          <mxGeometry x="731.1099999999997" y="43.960000000000036" width="47" height="47" as="geometry" />
        </mxCell>
        <mxCell id="GmjQoCojNCX24J4jFpLi-91" value="" style="endArrow=none;html=1;rounded=0;entryX=0.5;entryY=1;entryDx=0;entryDy=0;exitX=0.5;exitY=0;exitDx=0;exitDy=0;" edge="1" parent="GmjQoCojNCX24J4jFpLi-25" source="GmjQoCojNCX24J4jFpLi-81" target="GmjQoCojNCX24J4jFpLi-80">
          <mxGeometry width="50" height="50" relative="1" as="geometry">
            <mxPoint x="601" y="449" as="sourcePoint" />
            <mxPoint x="651" y="399" as="targetPoint" />
          </mxGeometry>
        </mxCell>
        <mxCell id="GmjQoCojNCX24J4jFpLi-92" value="" style="endArrow=none;html=1;rounded=0;exitX=0.5;exitY=0;exitDx=0;exitDy=0;entryX=0.5;entryY=1;entryDx=0;entryDy=0;" edge="1" parent="GmjQoCojNCX24J4jFpLi-25" source="GmjQoCojNCX24J4jFpLi-82" target="GmjQoCojNCX24J4jFpLi-81">
          <mxGeometry width="50" height="50" relative="1" as="geometry">
            <mxPoint x="601" y="449" as="sourcePoint" />
            <mxPoint x="651" y="399" as="targetPoint" />
          </mxGeometry>
        </mxCell>
        <mxCell id="GmjQoCojNCX24J4jFpLi-93" value="" style="endArrow=none;html=1;rounded=0;exitX=0.5;exitY=0;exitDx=0;exitDy=0;entryX=0.5;entryY=1;entryDx=0;entryDy=0;" edge="1" parent="GmjQoCojNCX24J4jFpLi-25" source="GmjQoCojNCX24J4jFpLi-85" target="GmjQoCojNCX24J4jFpLi-83">
          <mxGeometry width="50" height="50" relative="1" as="geometry">
            <mxPoint x="601" y="449" as="sourcePoint" />
            <mxPoint x="651" y="399" as="targetPoint" />
          </mxGeometry>
        </mxCell>
        <mxCell id="GmjQoCojNCX24J4jFpLi-94" value="" style="endArrow=none;html=1;rounded=0;exitX=0.5;exitY=0;exitDx=0;exitDy=0;entryX=0.5;entryY=1;entryDx=0;entryDy=0;" edge="1" parent="GmjQoCojNCX24J4jFpLi-25" source="GmjQoCojNCX24J4jFpLi-86" target="GmjQoCojNCX24J4jFpLi-85">
          <mxGeometry width="50" height="50" relative="1" as="geometry">
            <mxPoint x="601" y="449" as="sourcePoint" />
            <mxPoint x="651" y="399" as="targetPoint" />
          </mxGeometry>
        </mxCell>
        <mxCell id="GmjQoCojNCX24J4jFpLi-95" value="" style="endArrow=none;html=1;rounded=0;exitX=0.5;exitY=0;exitDx=0;exitDy=0;" edge="1" parent="GmjQoCojNCX24J4jFpLi-25" source="GmjQoCojNCX24J4jFpLi-88" target="GmjQoCojNCX24J4jFpLi-86">
          <mxGeometry width="50" height="50" relative="1" as="geometry">
            <mxPoint x="601" y="449" as="sourcePoint" />
            <mxPoint x="651" y="399" as="targetPoint" />
          </mxGeometry>
        </mxCell>
        <mxCell id="GmjQoCojNCX24J4jFpLi-96" value="" style="endArrow=none;html=1;rounded=0;exitX=0.5;exitY=0;exitDx=0;exitDy=0;entryX=0.5;entryY=1;entryDx=0;entryDy=0;" edge="1" parent="GmjQoCojNCX24J4jFpLi-25" source="GmjQoCojNCX24J4jFpLi-89" target="GmjQoCojNCX24J4jFpLi-84">
          <mxGeometry width="50" height="50" relative="1" as="geometry">
            <mxPoint x="601" y="449" as="sourcePoint" />
            <mxPoint x="651" y="399" as="targetPoint" />
          </mxGeometry>
        </mxCell>
        <mxCell id="GmjQoCojNCX24J4jFpLi-97" value="" style="endArrow=none;html=1;rounded=0;entryX=0.5;entryY=1;entryDx=0;entryDy=0;exitX=0.5;exitY=0;exitDx=0;exitDy=0;" edge="1" parent="GmjQoCojNCX24J4jFpLi-25" source="GmjQoCojNCX24J4jFpLi-87" target="GmjQoCojNCX24J4jFpLi-90">
          <mxGeometry width="50" height="50" relative="1" as="geometry">
            <mxPoint x="601" y="295" as="sourcePoint" />
            <mxPoint x="651" y="245" as="targetPoint" />
          </mxGeometry>
        </mxCell>
        <mxCell id="GmjQoCojNCX24J4jFpLi-98" value="1" style="ellipse;whiteSpace=wrap;html=1;aspect=fixed;" vertex="1" parent="GmjQoCojNCX24J4jFpLi-25">
          <mxGeometry x="952.6100000000001" y="43.960000000000036" width="47" height="47" as="geometry" />
        </mxCell>
        <mxCell id="GmjQoCojNCX24J4jFpLi-99" value="&lt;font style=&quot;font-size: 12px;&quot;&gt;Сохранение изменений&lt;/font&gt;" style="rounded=0;whiteSpace=wrap;html=1;" vertex="1" parent="GmjQoCojNCX24J4jFpLi-25">
          <mxGeometry x="699.4399999999999" y="485.28000000000003" width="113.11" height="76.24" as="geometry" />
        </mxCell>
        <mxCell id="GmjQoCojNCX24J4jFpLi-100" value="&lt;font style=&quot;font-size: 12px;&quot; face=&quot;Helvetica&quot;&gt;Конец&lt;/font&gt;" style="ellipse;whiteSpace=wrap;html=1;" vertex="1" parent="GmjQoCojNCX24J4jFpLi-25">
          <mxGeometry x="815.67" y="637.52" width="98.22" height="53" as="geometry" />
        </mxCell>
        <mxCell id="GmjQoCojNCX24J4jFpLi-101" value="" style="shape=partialRectangle;whiteSpace=wrap;html=1;bottom=1;right=1;left=1;top=0;fillColor=none;routingCenterX=-0.5;" vertex="1" parent="GmjQoCojNCX24J4jFpLi-25">
          <mxGeometry x="755" y="561.52" width="221" height="22.48" as="geometry" />
        </mxCell>
        <mxCell id="GmjQoCojNCX24J4jFpLi-102" value="" style="endArrow=none;html=1;rounded=0;entryX=0.5;entryY=1;entryDx=0;entryDy=0;exitX=1;exitY=0;exitDx=0;exitDy=0;" edge="1" parent="GmjQoCojNCX24J4jFpLi-25" source="GmjQoCojNCX24J4jFpLi-101" target="GmjQoCojNCX24J4jFpLi-98">
          <mxGeometry width="50" height="50" relative="1" as="geometry">
            <mxPoint x="976" y="538" as="sourcePoint" />
            <mxPoint x="648" y="311" as="targetPoint" />
          </mxGeometry>
        </mxCell>
        <mxCell id="GmjQoCojNCX24J4jFpLi-103" value="" style="endArrow=none;html=1;rounded=0;entryX=0.5;entryY=1;entryDx=0;entryDy=0;exitX=0.5;exitY=0;exitDx=0;exitDy=0;" edge="1" parent="GmjQoCojNCX24J4jFpLi-25" source="GmjQoCojNCX24J4jFpLi-100" target="GmjQoCojNCX24J4jFpLi-101">
          <mxGeometry width="50" height="50" relative="1" as="geometry">
            <mxPoint x="598" y="611" as="sourcePoint" />
            <mxPoint x="648" y="561" as="targetPoint" />
          </mxGeometry>
        </mxCell>
        <mxCell id="GmjQoCojNCX24J4jFpLi-104" value="Да" style="text;html=1;align=center;verticalAlign=middle;whiteSpace=wrap;rounded=0;" vertex="1" parent="GmjQoCojNCX24J4jFpLi-25">
          <mxGeometry x="191" y="337" width="60" height="30" as="geometry" />
        </mxCell>
        <mxCell id="GmjQoCojNCX24J4jFpLi-105" value="Нет" style="text;html=1;align=center;verticalAlign=middle;whiteSpace=wrap;rounded=0;" vertex="1" parent="GmjQoCojNCX24J4jFpLi-25">
          <mxGeometry x="362.55999999999995" y="339" width="60" height="30" as="geometry" />
        </mxCell>
        <mxCell id="GmjQoCojNCX24J4jFpLi-106" value="&lt;font style=&quot;font-size: 16px;&quot;&gt;A03&lt;/font&gt;" style="text;html=1;align=center;verticalAlign=middle;whiteSpace=wrap;rounded=0;" vertex="1" parent="GmjQoCojNCX24J4jFpLi-25">
          <mxGeometry x="235.99999999999966" y="33" width="60" height="30" as="geometry" />
        </mxCell>
        <mxCell id="GmjQoCojNCX24J4jFpLi-107" value="&lt;font style=&quot;font-size: 16px;&quot;&gt;C03&lt;/font&gt;" style="text;html=1;align=center;verticalAlign=middle;whiteSpace=wrap;rounded=0;" vertex="1" parent="GmjQoCojNCX24J4jFpLi-25">
          <mxGeometry x="226.99999999999955" y="150" width="60" height="30" as="geometry" />
        </mxCell>
        <mxCell id="GmjQoCojNCX24J4jFpLi-108" value="&lt;div style=&quot;text-align: center;&quot;&gt;&lt;span style=&quot;background-color: initial; font-size: 16px;&quot;&gt;D03&lt;/span&gt;&lt;/div&gt;" style="text;whiteSpace=wrap;html=1;" vertex="1" parent="GmjQoCojNCX24J4jFpLi-25">
          <mxGeometry x="215.8932031249998" y="258.9999348958336" width="56" height="41" as="geometry" />
        </mxCell>
        <mxCell id="GmjQoCojNCX24J4jFpLi-109" value="&lt;span style=&quot;color: rgb(0, 0, 0); font-family: Helvetica; font-size: 16px; font-style: normal; font-variant-ligatures: normal; font-variant-caps: normal; font-weight: 400; letter-spacing: normal; orphans: 2; text-align: center; text-indent: 0px; text-transform: none; widows: 2; word-spacing: 0px; -webkit-text-stroke-width: 0px; background-color: rgb(251, 251, 251); text-decoration-thickness: initial; text-decoration-style: initial; text-decoration-color: initial; float: none; display: inline !important;&quot;&gt;F02&lt;/span&gt;" style="text;whiteSpace=wrap;html=1;" vertex="1" parent="GmjQoCojNCX24J4jFpLi-25">
          <mxGeometry x="131.49986979166715" y="381.9966015625" width="56" height="41" as="geometry" />
        </mxCell>
        <mxCell id="GmjQoCojNCX24J4jFpLi-110" value="&lt;div style=&quot;text-align: center;&quot;&gt;&lt;span style=&quot;background-color: initial; font-size: 16px;&quot;&gt;H02&lt;/span&gt;&lt;/div&gt;" style="text;whiteSpace=wrap;html=1;" vertex="1" parent="GmjQoCojNCX24J4jFpLi-25">
          <mxGeometry x="131.50022977941262" y="532.0011764705882" width="56" height="41" as="geometry" />
        </mxCell>
        <mxCell id="GmjQoCojNCX24J4jFpLi-111" value="&lt;span style=&quot;color: rgb(0, 0, 0); font-family: Helvetica; font-size: 16px; font-style: normal; font-variant-ligatures: normal; font-variant-caps: normal; font-weight: 400; letter-spacing: normal; orphans: 2; text-align: center; text-indent: 0px; text-transform: none; widows: 2; word-spacing: 0px; -webkit-text-stroke-width: 0px; background-color: rgb(251, 251, 251); text-decoration-thickness: initial; text-decoration-style: initial; text-decoration-color: initial; float: none; display: inline !important;&quot;&gt;J02&lt;/span&gt;" style="text;whiteSpace=wrap;html=1;" vertex="1" parent="GmjQoCojNCX24J4jFpLi-25">
          <mxGeometry x="131.49905330882348" y="681.0011764705882" width="56" height="41" as="geometry" />
        </mxCell>
        <mxCell id="GmjQoCojNCX24J4jFpLi-112" value="&lt;span style=&quot;color: rgb(0, 0, 0); font-family: Helvetica; font-size: 16px; font-style: normal; font-variant-ligatures: normal; font-variant-caps: normal; font-weight: 400; letter-spacing: normal; orphans: 2; text-align: center; text-indent: 0px; text-transform: none; widows: 2; word-spacing: 0px; -webkit-text-stroke-width: 0px; background-color: rgb(251, 251, 251); text-decoration-thickness: initial; text-decoration-style: initial; text-decoration-color: initial; float: none; display: inline !important;&quot;&gt;F04&lt;/span&gt;" style="text;whiteSpace=wrap;html=1;" vertex="1" parent="GmjQoCojNCX24J4jFpLi-25">
          <mxGeometry x="359.67317095588305" y="381.99647058823575" width="56" height="41" as="geometry" />
        </mxCell>
        <mxCell id="GmjQoCojNCX24J4jFpLi-113" value="&lt;span style=&quot;color: rgb(0, 0, 0); font-family: Helvetica; font-size: 16px; font-style: normal; font-variant-ligatures: normal; font-variant-caps: normal; font-weight: 400; letter-spacing: normal; orphans: 2; text-align: center; text-indent: 0px; text-transform: none; widows: 2; word-spacing: 0px; -webkit-text-stroke-width: 0px; background-color: rgb(251, 251, 251); text-decoration-thickness: initial; text-decoration-style: initial; text-decoration-color: initial; float: none; display: inline !important;&quot;&gt;C07&lt;/span&gt;" style="text;whiteSpace=wrap;html=1;" vertex="1" parent="GmjQoCojNCX24J4jFpLi-25">
          <mxGeometry x="691.0011764705891" y="149.9983501838235" width="56" height="41" as="geometry" />
        </mxCell>
        <mxCell id="GmjQoCojNCX24J4jFpLi-114" value="&lt;span style=&quot;color: rgb(0, 0, 0); font-family: Helvetica; font-size: 16px; font-style: normal; font-variant-ligatures: normal; font-variant-caps: normal; font-weight: 400; letter-spacing: normal; orphans: 2; text-align: center; text-indent: 0px; text-transform: none; widows: 2; word-spacing: 0px; -webkit-text-stroke-width: 0px; background-color: rgb(251, 251, 251); text-decoration-thickness: initial; text-decoration-style: initial; text-decoration-color: initial; float: none; display: inline !important;&quot;&gt;E07&lt;/span&gt;" style="text;whiteSpace=wrap;html=1;" vertex="1" parent="GmjQoCojNCX24J4jFpLi-25">
          <mxGeometry x="697.2170588235299" y="289.0024678308823" width="56" height="41" as="geometry" />
        </mxCell>
        <mxCell id="GmjQoCojNCX24J4jFpLi-115" value="&lt;span style=&quot;color: rgb(0, 0, 0); font-family: Helvetica; font-size: 16px; font-style: normal; font-variant-ligatures: normal; font-variant-caps: normal; font-weight: 400; letter-spacing: normal; orphans: 2; text-align: center; text-indent: 0px; text-transform: none; widows: 2; word-spacing: 0px; -webkit-text-stroke-width: 0px; background-color: rgb(251, 251, 251); text-decoration-thickness: initial; text-decoration-style: initial; text-decoration-color: initial; float: none; display: inline !important;&quot;&gt;G07&lt;/span&gt;" style="text;whiteSpace=wrap;html=1;" vertex="1" parent="GmjQoCojNCX24J4jFpLi-25">
          <mxGeometry x="699.0023529411765" y="457.00305606617667" width="56" height="41" as="geometry" />
        </mxCell>
        <mxCell id="GmjQoCojNCX24J4jFpLi-116" value="&lt;span style=&quot;color: rgb(0, 0, 0); font-family: Helvetica; font-size: 16px; font-style: normal; font-variant-ligatures: normal; font-variant-caps: normal; font-weight: 400; letter-spacing: normal; orphans: 2; text-align: center; text-indent: 0px; text-transform: none; widows: 2; word-spacing: 0px; -webkit-text-stroke-width: 0px; background-color: rgb(251, 251, 251); text-decoration-thickness: initial; text-decoration-style: initial; text-decoration-color: initial; float: none; display: inline !important;&quot;&gt;I08&lt;/span&gt;" style="text;whiteSpace=wrap;html=1;" vertex="1" parent="GmjQoCojNCX24J4jFpLi-25">
          <mxGeometry x="811.6732996323531" y="609.7369439338236" width="56" height="41" as="geometry" />
        </mxCell>
        <mxCell id="GmjQoCojNCX24J4jFpLi-117" value="" style="rounded=0;whiteSpace=wrap;html=1;fillColor=none;strokeWidth=3;" vertex="1" parent="1">
          <mxGeometry x="2692" y="2091" width="100" height="99" as="geometry" />
        </mxCell>
        <mxCell id="GmjQoCojNCX24J4jFpLi-118" value="" style="rounded=0;whiteSpace=wrap;html=1;fillColor=none;strokeWidth=3;" vertex="1" parent="1">
          <mxGeometry x="2532" y="2091" width="68" height="99" as="geometry" />
        </mxCell>
        <mxCell id="GmjQoCojNCX24J4jFpLi-119" style="vsdxID=1;edgeStyle=none;startArrow=none;endArrow=none;startSize=5;endSize=5;strokeWidth=3;strokeColor=#000000;spacingTop=0;spacingBottom=0;spacingLeft=0;spacingRight=0;verticalAlign=middle;html=1;labelBackgroundColor=#ffffff;rounded=0;" edge="1" parent="1">
          <mxGeometry relative="1" as="geometry">
            <Array as="points" />
            <mxPoint x="1718.7800000000002" y="1178.005" as="sourcePoint" />
            <mxPoint x="3270.3" y="1178.005" as="targetPoint" />
          </mxGeometry>
        </mxCell>
        <mxCell id="GmjQoCojNCX24J4jFpLi-120" style="vsdxID=1;edgeStyle=none;startArrow=none;endArrow=none;startSize=5;endSize=5;strokeWidth=3;strokeColor=#000000;spacingTop=0;spacingBottom=0;spacingLeft=0;spacingRight=0;verticalAlign=middle;html=1;labelBackgroundColor=#ffffff;rounded=0;" edge="1" parent="1">
          <mxGeometry relative="1" as="geometry">
            <Array as="points" />
            <mxPoint x="3271" y="2314" as="sourcePoint" />
            <mxPoint x="1717" y="2314" as="targetPoint" />
          </mxGeometry>
        </mxCell>
        <mxCell id="GmjQoCojNCX24J4jFpLi-121" value="" style="rounded=0;whiteSpace=wrap;html=1;fillColor=none;strokeWidth=3;" vertex="1" parent="1">
          <mxGeometry x="2532" y="2150" width="740" height="100" as="geometry" />
        </mxCell>
        <mxCell id="GmjQoCojNCX24J4jFpLi-122" value="" style="rounded=0;whiteSpace=wrap;html=1;fillColor=none;strokeWidth=3;" vertex="1" parent="1">
          <mxGeometry x="3072" y="2150" width="200" height="100" as="geometry" />
        </mxCell>
        <mxCell id="GmjQoCojNCX24J4jFpLi-123" value="" style="rounded=0;whiteSpace=wrap;html=1;fillColor=none;strokeWidth=3;" vertex="1" parent="1">
          <mxGeometry x="3072" y="2250" width="200" height="64" as="geometry" />
        </mxCell>
        <mxCell id="GmjQoCojNCX24J4jFpLi-124" value="" style="rounded=0;whiteSpace=wrap;html=1;fillColor=none;strokeWidth=3;" vertex="1" parent="1">
          <mxGeometry x="2792" y="2150" width="280" height="100" as="geometry" />
        </mxCell>
        <mxCell id="GmjQoCojNCX24J4jFpLi-125" value="" style="rounded=0;whiteSpace=wrap;html=1;fillColor=none;strokeWidth=3;" vertex="1" parent="1">
          <mxGeometry x="2792" y="2250" width="280" height="64" as="geometry" />
        </mxCell>
        <mxCell id="GmjQoCojNCX24J4jFpLi-126" value="" style="rounded=0;whiteSpace=wrap;html=1;fillColor=none;strokeWidth=3;" vertex="1" parent="1">
          <mxGeometry x="3072" y="2150" width="60" height="80" as="geometry" />
        </mxCell>
        <mxCell id="GmjQoCojNCX24J4jFpLi-127" value="" style="rounded=0;whiteSpace=wrap;html=1;fillColor=none;strokeWidth=3;" vertex="1" parent="1">
          <mxGeometry x="3132" y="2150" width="68" height="80" as="geometry" />
        </mxCell>
        <mxCell id="GmjQoCojNCX24J4jFpLi-128" value="" style="rounded=0;whiteSpace=wrap;html=1;fillColor=none;strokeWidth=3;" vertex="1" parent="1">
          <mxGeometry x="3200" y="2150" width="72" height="80" as="geometry" />
        </mxCell>
        <mxCell id="GmjQoCojNCX24J4jFpLi-129" value="" style="rounded=0;whiteSpace=wrap;html=1;fillColor=none;strokeWidth=3;" vertex="1" parent="1">
          <mxGeometry x="3152" y="2230" width="120" height="20" as="geometry" />
        </mxCell>
        <mxCell id="GmjQoCojNCX24J4jFpLi-130" value="" style="rounded=0;whiteSpace=wrap;html=1;fillColor=none;strokeWidth=3;" vertex="1" parent="1">
          <mxGeometry x="3072" y="2170" width="20" height="60" as="geometry" />
        </mxCell>
        <mxCell id="GmjQoCojNCX24J4jFpLi-131" value="" style="rounded=0;whiteSpace=wrap;html=1;fillColor=none;strokeWidth=3;" vertex="1" parent="1">
          <mxGeometry x="3092" y="2170" width="20" height="60" as="geometry" />
        </mxCell>
        <mxCell id="GmjQoCojNCX24J4jFpLi-132" value="" style="rounded=0;whiteSpace=wrap;html=1;fillColor=none;strokeWidth=3;" vertex="1" parent="1">
          <mxGeometry x="3112" y="2170" width="20" height="60" as="geometry" />
        </mxCell>
        <mxCell id="GmjQoCojNCX24J4jFpLi-133" value="" style="rounded=0;whiteSpace=wrap;html=1;fillColor=none;strokeWidth=3;" vertex="1" parent="1">
          <mxGeometry x="3072" y="2150" width="200" height="20" as="geometry" />
        </mxCell>
        <mxCell id="GmjQoCojNCX24J4jFpLi-134" value="" style="rounded=0;whiteSpace=wrap;html=1;fillColor=none;strokeWidth=3;" vertex="1" parent="1">
          <mxGeometry x="2532" y="2150" width="260" height="20" as="geometry" />
        </mxCell>
        <mxCell id="GmjQoCojNCX24J4jFpLi-135" value="" style="rounded=0;whiteSpace=wrap;html=1;fillColor=none;strokeWidth=3;" vertex="1" parent="1">
          <mxGeometry x="2532" y="2170" width="260" height="20" as="geometry" />
        </mxCell>
        <mxCell id="GmjQoCojNCX24J4jFpLi-136" value="" style="rounded=0;whiteSpace=wrap;html=1;fillColor=none;strokeWidth=3;" vertex="1" parent="1">
          <mxGeometry x="2600" y="2091" width="92" height="99" as="geometry" />
        </mxCell>
        <mxCell id="GmjQoCojNCX24J4jFpLi-137" value="" style="rounded=0;whiteSpace=wrap;html=1;fillColor=none;strokeWidth=1;" vertex="1" parent="1">
          <mxGeometry x="2532" y="2130" width="260" height="20" as="geometry" />
        </mxCell>
        <mxCell id="GmjQoCojNCX24J4jFpLi-138" value="" style="rounded=0;whiteSpace=wrap;html=1;fillColor=none;strokeWidth=1;" vertex="1" parent="1">
          <mxGeometry x="2532" y="2110" width="260" height="20" as="geometry" />
        </mxCell>
        <mxCell id="GmjQoCojNCX24J4jFpLi-139" value="" style="rounded=0;whiteSpace=wrap;html=1;fillColor=none;strokeWidth=1;" vertex="1" parent="1">
          <mxGeometry x="2532" y="2190" width="260" height="20" as="geometry" />
        </mxCell>
        <mxCell id="GmjQoCojNCX24J4jFpLi-140" value="" style="rounded=0;whiteSpace=wrap;html=1;fillColor=none;strokeWidth=1;" vertex="1" parent="1">
          <mxGeometry x="2532" y="2210" width="260" height="20" as="geometry" />
        </mxCell>
        <mxCell id="GmjQoCojNCX24J4jFpLi-141" value="" style="rounded=0;whiteSpace=wrap;html=1;fillColor=none;strokeWidth=1;" vertex="1" parent="1">
          <mxGeometry x="2532" y="2250" width="260" height="21" as="geometry" />
        </mxCell>
        <mxCell id="GmjQoCojNCX24J4jFpLi-142" value="" style="rounded=0;whiteSpace=wrap;html=1;fillColor=none;strokeWidth=1;" vertex="1" parent="1">
          <mxGeometry x="2532" y="2271" width="260" height="23" as="geometry" />
        </mxCell>
        <mxCell id="GmjQoCojNCX24J4jFpLi-143" value="" style="rounded=0;whiteSpace=wrap;html=1;fillColor=none;strokeWidth=3;" vertex="1" parent="1">
          <mxGeometry x="2532" y="2150" width="68" height="164" as="geometry" />
        </mxCell>
        <mxCell id="GmjQoCojNCX24J4jFpLi-144" value="" style="rounded=0;whiteSpace=wrap;html=1;fillColor=none;strokeWidth=3;" vertex="1" parent="1">
          <mxGeometry x="2600" y="2150" width="92" height="164" as="geometry" />
        </mxCell>
        <mxCell id="GmjQoCojNCX24J4jFpLi-145" value="" style="rounded=0;whiteSpace=wrap;html=1;fillColor=none;strokeWidth=3;" vertex="1" parent="1">
          <mxGeometry x="2692" y="2150" width="60" height="164" as="geometry" />
        </mxCell>
        <mxCell id="GmjQoCojNCX24J4jFpLi-146" value="" style="rounded=0;whiteSpace=wrap;html=1;fillColor=none;strokeWidth=3;" vertex="1" parent="1">
          <mxGeometry x="2532" y="2091" width="28" height="99" as="geometry" />
        </mxCell>
        <mxCell id="GmjQoCojNCX24J4jFpLi-147" value="Верхов" style="text;html=1;strokeColor=none;fillColor=none;align=center;verticalAlign=middle;whiteSpace=wrap;rounded=0;fontFamily=Verdana;fontStyle=2" vertex="1" parent="1">
          <mxGeometry x="2600" y="2212" width="61" height="20" as="geometry" />
        </mxCell>
        <mxCell id="GmjQoCojNCX24J4jFpLi-148" value="Грицков" style="text;html=1;strokeColor=none;fillColor=none;align=center;verticalAlign=middle;whiteSpace=wrap;rounded=0;fontFamily=Verdana;fontStyle=2" vertex="1" parent="1">
          <mxGeometry x="2613" y="2192" width="40" height="20" as="geometry" />
        </mxCell>
        <mxCell id="GmjQoCojNCX24J4jFpLi-149" value="ГУИР.501529 006 Д2" style="text;html=1;strokeColor=none;fillColor=none;align=center;verticalAlign=middle;whiteSpace=wrap;rounded=0;fontFamily=Verdana;fontStyle=2;fontSize=27;" vertex="1" parent="1">
          <mxGeometry x="2860" y="2112" width="346" height="20" as="geometry" />
        </mxCell>
        <mxCell id="GmjQoCojNCX24J4jFpLi-150" value="Лист" style="text;html=1;strokeColor=none;fillColor=none;align=center;verticalAlign=middle;whiteSpace=wrap;rounded=0;fontFamily=Verdana;fontStyle=2" vertex="1" parent="1">
          <mxGeometry x="3072" y="2231" width="68" height="20" as="geometry" />
        </mxCell>
        <mxCell id="GmjQoCojNCX24J4jFpLi-151" value="Листов 1" style="text;html=1;strokeColor=none;fillColor=none;align=center;verticalAlign=middle;whiteSpace=wrap;rounded=0;fontFamily=Verdana;fontStyle=2" vertex="1" parent="1">
          <mxGeometry x="3178" y="2232" width="68" height="20" as="geometry" />
        </mxCell>
        <mxCell id="GmjQoCojNCX24J4jFpLi-152" value="ПИКС, гр.214302" style="text;html=1;strokeColor=none;fillColor=none;align=center;verticalAlign=middle;whiteSpace=wrap;rounded=0;fontFamily=Verdana;fontStyle=2;fontSize=17;" vertex="1" parent="1">
          <mxGeometry x="3051" y="2271" width="237" height="20" as="geometry" />
        </mxCell>
        <mxCell id="GmjQoCojNCX24J4jFpLi-153" value="&lt;font style=&quot;font-size: 22px;&quot;&gt;ГУИР.501529 006 Д2&lt;/font&gt;" style="text;html=1;strokeColor=none;fillColor=none;align=center;verticalAlign=middle;whiteSpace=wrap;rounded=0;fontFamily=Verdana;fontStyle=2;fontSize=20;rotation=-180;" vertex="1" parent="1">
          <mxGeometry x="1690" y="1198" width="313" height="20" as="geometry" />
        </mxCell>
        <mxCell id="GmjQoCojNCX24J4jFpLi-154" value="&lt;font style=&quot;font-size: 23px&quot;&gt;Схема алгоритма создания&lt;/font&gt;&lt;div&gt;&lt;font style=&quot;font-size: 23px&quot;&gt;&amp;nbsp;онлайн-курса&lt;/font&gt;&lt;/div&gt;" style="text;html=1;strokeColor=none;fillColor=none;align=center;verticalAlign=middle;whiteSpace=wrap;rounded=0;fontFamily=Verdana;fontStyle=2;fontSize=27;" vertex="1" parent="1">
          <mxGeometry x="2788" y="2189" width="286" height="20" as="geometry" />
        </mxCell>
        <mxCell id="GmjQoCojNCX24J4jFpLi-155" value="&lt;font style=&quot;font-size: 12px;&quot;&gt;Отображение нового курса&lt;/font&gt;" style="rounded=0;whiteSpace=wrap;html=1;" vertex="1" parent="1">
          <mxGeometry x="2455.56" y="1577" width="113.11" height="76.24" as="geometry" />
        </mxCell>
        <mxCell id="GmjQoCojNCX24J4jFpLi-156" value="" style="endArrow=none;html=1;rounded=0;entryX=0.5;entryY=1;entryDx=0;entryDy=0;exitX=0.5;exitY=0;exitDx=0;exitDy=0;" edge="1" parent="1" source="GmjQoCojNCX24J4jFpLi-155" target="GmjQoCojNCX24J4jFpLi-87">
          <mxGeometry width="50" height="50" relative="1" as="geometry">
            <mxPoint x="2358" y="1554" as="sourcePoint" />
            <mxPoint x="2408" y="1504" as="targetPoint" />
          </mxGeometry>
        </mxCell>
        <mxCell id="GmjQoCojNCX24J4jFpLi-157" value="" style="endArrow=none;html=1;rounded=0;exitX=0.5;exitY=0;exitDx=0;exitDy=0;" edge="1" parent="1" source="GmjQoCojNCX24J4jFpLi-84">
          <mxGeometry width="50" height="50" relative="1" as="geometry">
            <mxPoint x="2358" y="1708" as="sourcePoint" />
            <mxPoint x="2175" y="1624" as="targetPoint" />
          </mxGeometry>
        </mxCell>
        <mxCell id="GmjQoCojNCX24J4jFpLi-158" value="" style="endArrow=none;html=1;rounded=0;exitX=0.5;exitY=0;exitDx=0;exitDy=0;" edge="1" parent="1" source="GmjQoCojNCX24J4jFpLi-83">
          <mxGeometry width="50" height="50" relative="1" as="geometry">
            <mxPoint x="2358" y="1708" as="sourcePoint" />
            <mxPoint x="1948" y="1624" as="targetPoint" />
          </mxGeometry>
        </mxCell>
        <mxCell id="GmjQoCojNCX24J4jFpLi-159" value="" style="endArrow=none;html=1;rounded=0;exitX=0.5;exitY=1;exitDx=0;exitDy=0;" edge="1" parent="1" source="GmjQoCojNCX24J4jFpLi-82">
          <mxGeometry width="50" height="50" relative="1" as="geometry">
            <mxPoint x="2128" y="1620" as="sourcePoint" />
            <mxPoint x="2060" y="1625" as="targetPoint" />
          </mxGeometry>
        </mxCell>
        <mxCell id="GmjQoCojNCX24J4jFpLi-160" value="" style="endArrow=none;html=1;rounded=0;" edge="1" parent="1">
          <mxGeometry width="50" height="50" relative="1" as="geometry">
            <mxPoint x="1948" y="1625" as="sourcePoint" />
            <mxPoint x="2175" y="1625" as="targetPoint" />
          </mxGeometry>
        </mxCell>
        <mxCell id="GmjQoCojNCX24J4jFpLi-161" value="" style="endArrow=none;html=1;rounded=0;entryX=0.5;entryY=1;entryDx=0;entryDy=0;exitX=0.5;exitY=0;exitDx=0;exitDy=0;" edge="1" parent="1" source="GmjQoCojNCX24J4jFpLi-99" target="GmjQoCojNCX24J4jFpLi-155">
          <mxGeometry width="50" height="50" relative="1" as="geometry">
            <mxPoint x="2355" y="1620" as="sourcePoint" />
            <mxPoint x="2405" y="1570" as="targetPoint" />
          </mxGeometry>
        </mxCell>
      </root>
    </mxGraphModel>
  </diagram>
</mxfile>
